<?xml version="1.0" encoding="utf-8"?>
<!-- Generator: Adobe Illustrator 26.5.0, SVG Export Plug-In . SVG Version: 6.00 Build 0)  -->
<svg version="1.1" id="Layer_1" xmlns="http://www.w3.org/2000/svg" xmlns:xlink="http://www.w3.org/1999/xlink" x="0px" y="0px"
	 viewBox="0 0 153 153.7" style="enable-background:new 0 0 153 153.7;" xml:space="preserve">
<style type="text/css">
	.st0{fill:none;}
	.st1{fill:#B1B1B1;}
</style>
<g>
	<path class="st0" d="M65.6,34.3c0,0.2,0.1,0.3,0.1,0.5c0.1,0.5,0.3,1,0.4,1.5c0,0.1,0.1,0.3,0.1,0.4c0.1,0.5,0.2,1,0.4,1.5
		c0.2,0.7,0.6,1.3,0.8,2c0,0,0,0,0,0.1l0.1,0.3l0,0.2l0.1,0.6l0.2,0.8l0.1,0.4l0,0l0,0.1l0,0.1c0,0,0,0,0,0l0.1,0l0.1,0l0.8-0.3
		l0.4-0.1l0,0l0.2-0.1l0,0l1-0.3c0.3-0.1,0.6-0.2,0.9-0.3c0.4-0.1,0.7-0.3,1.1-0.4c1.6-0.6,3.2-1.3,4.8-2.1c1.2-0.6,2.4-1.3,3.7-1.9
		c1.5-0.6,3.1-1.2,4.6-1.7c0.7-0.3,1.4-0.5,2.1-0.8c1.6-0.7,3.1-1.3,4.7-2c0.2-0.1,0.3-0.1,0.5-0.2c0.2-0.1,0.4-0.2,0.5-0.2
		c0.2-0.1,1-0.4,1.9-0.8c0.3-0.1,0.5-0.2,0.8-0.3c0.2-0.1,0.4-0.2,0.6-0.2c0.9-0.4,1.8-0.7,2.4-0.9c0,0,0,0,0,0
		c0.5-0.2,0.9-0.3,1.4-0.5c0.5-0.2,0.9-0.4,1.4-0.6c0.1,0,0.1-0.1,0.2-0.1c0.5-0.2,1-0.5,1.5-0.7c0.3-0.1,0.6-0.3,0.9-0.4
		c0.2-0.1,0.4-0.2,0.7-0.3c0.3-0.1,0.6-0.2,0.9-0.3l0.2-0.1l0.4-0.1l0.1-0.1l0,0l0,0l0,0l0-0.1l-0.1-0.1l-0.1-0.1
		c-0.1-0.3-0.3-0.6-0.4-0.9c0-0.1,0-0.1-0.1-0.2c-0.3-0.7-0.7-1.4-1-2c-0.1-0.2-0.2-0.4-0.3-0.6c0-0.1-0.1-0.1-0.1-0.2
		c-0.1-0.3-0.3-0.6-0.4-0.9c-0.2-0.3-0.3-0.6-0.5-1c-0.1-0.1-0.1-0.3-0.2-0.4c-0.2-0.4-0.5-0.8-0.8-1.2c-0.2-0.3-0.4-0.6-0.7-0.9
		c-0.1-0.1-0.3-0.2-0.4-0.3c-0.2-0.1-0.5-0.2-0.7-0.2c-0.2,0-0.5,0-0.7,0.1c-0.2,0-0.4,0.1-0.6,0.2L99.2,18
		c-0.7,0.2-1.4,0.4-2.1,0.7c-0.6,0.2-1.2,0.4-1.8,0.7c-0.8,0.4-1.5,0.9-2.3,1.3c-0.3,0.2-0.7,0.3-1,0.4c-0.7,0.2-1.4,0.4-2.1,0.7
		c-0.2,0.1-0.4,0.2-0.6,0.3l-0.3,0.1l-0.1,0.1l-0.2,0.1l-2,1c0.1,0.1,0.2,0.1,0.3,0.2c0.2,0.2,0.4,0.3,0.6,0.5
		c0.1,0.1,0.3,0.2,0.4,0.3c0.1,0.1,0.2,0.1,0.2,0.2c0,0,0.1,0.1,0.1,0.1l0.1,0.1c0.1,0.1,0.1,0.1,0.2,0.2c0.3,0.3,0.5,0.7,0.6,1
		c0.4,0.9,0.3,2-0.1,3.1c-0.2,0.5-0.4,1-0.8,1.3c-0.3,0.4-0.8,0.6-1.3,0.8c-1,0.3-2.2,0.3-3.1,0.1c-0.5-0.1-1-0.3-1.4-0.7
		c-0.4-0.3-0.7-0.8-0.9-1.3c-0.2-0.5-0.4-1.1-0.6-1.7c0-0.1-0.3-0.6-0.5-0.8c0,0,0,0,0,0c0,0,0,0,0,0c0,0,0,0,0,0c0-0.1,0-0.1,0-0.2
		c0,0,0,0-0.1,0c0,0,0,0,0,0c0,0,0,0,0,0c0,0,0,0,0,0c-0.2,0.1-0.3,0.1-0.5,0.2c-0.1,0-0.1,0-0.2,0c-1.7,0.5-3.4,1-5.1,1.6
		c-1.7,0.6-3.4,1.4-5.1,2.1c-1,0.4-1.8,1-2.8,1.4c-0.1,0-0.2,0.1-0.3,0.2c-0.1,0.1-0.2,0.1-0.2,0.2c-0.1,0.1-0.2,0.3-0.4,0.4
		c-0.2,0.3-0.4,0.6-0.4,1c0,0,0,0,0,0c0,0.1,0,0.2,0,0.3c0,0.1,0,0.1,0,0.2L65.6,34.3z"/>
	<path class="st0" d="M11.5,68.1l1.4-0.9l2.1-1.4c1.4-0.9,2.8-1.8,4.3-2.7c3.4-2.1,6.9-4.2,10.3-6.2c4.3-2.6,8.7-5.2,13-7.8
		c1.3-0.8,2.6-1.4,3.9-2.2c3.7-2.2,7.4-4.4,11.1-6.7c0.5-0.3,1.1-0.7,1.6-1L57.9,37c0,0-0.1,0.1-0.1,0.1l-0.1,0l-0.2,0.1
		c-0.3,0.2-0.6,0.4-0.9,0.5c-0.5,0.3-0.9,0.5-1.2,0.7l-21.3,13c-0.6,0.4-1.2,0.8-1.8,1.1c-1.9,1.2-3.8,2.3-5.7,3.4
		c-0.2,0.1-0.5,0.3-0.7,0.4L8.4,67.1l0.4,0.5c0.3,0.4,0.6,0.8,1,1.2l0.2,0.3l0.2-0.1l0.5-0.3L11.5,68.1z"/>
	<path class="st0" d="M62,141.3c-0.4-0.6-1.3-2-2-3c2.9,4.4,4.8,7.5,4.8,7.5l0.7-0.2c-0.8-0.9-1.3-1.4-1.8-2.1
		C63.2,142.9,62.6,142.2,62,141.3z"/>
	<path class="st0" d="M104.7,28.9c-0.2,0.1-0.4,0.2-0.6,0.2c-1.1,0.4-2.1,0.8-3.2,1.2c-0.6,0.2-0.9,0.3-1.1,0.4
		c-0.3,0.1-0.4,0.2-0.7,0.3c-0.2,0.1-0.4,0.2-0.8,0.3c-0.1,0-0.2,0.1-0.3,0.1c-0.6,0.2-1.2,0.4-1.7,0.7c-0.2,0.1-0.5,0.2-0.7,0.3
		c-0.3,0.1-0.5,0.2-0.8,0.3c-0.2,0.1-0.5,0.2-0.7,0.3c-0.4,0.2-1,0.4-1.7,0.7c-0.2,0.1-0.3,0.1-0.5,0.2c-2,0.8-4.5,1.8-5.7,2.4
		c-1.1,0.5-2.2,0.9-3.2,1.4c-1.3,0.6-2.6,1.2-3.9,1.8c-0.9,0.4-1.8,0.6-2.7,1c-0.5,0.2-1.1,0.4-1.6,0.6l-1.4,0.6l-2.3,1
		c-0.2,0.1-0.3,0.1-0.5,0.2c-0.1,0-0.2,0.1-0.2,0.1c-0.3,0.1-0.7,0.3-1,0.4l-0.2,0.1l-0.4,0.2l-0.1,0c0,0-0.1,0,0,0l0.1,0.1l0.2,0.3
		c0.3,0.4,0.5,0.7,0.8,1.1c0.6,0.8,1.2,1.5,1.7,2.3l0.4,0.6c0.2,0.2,0.3,0.5,0.6,0.7c0.2,0.1,0.4,0.3,0.7,0.4c0.1,0,0.2,0,0.3,0.1
		c0.1,0,0.2,0,0.3,0c0.2,0,0.5,0,0.7-0.1c0.2-0.1,0.4-0.1,0.6-0.2c0,0,0.1,0,0.1-0.1l0.1,0l0.6-0.3c0.4-0.2,0.9-0.4,1.3-0.5
		c0.3-0.1,0.6-0.2,0.9-0.3c0.3-0.1,0.7-0.2,1-0.3c2.1-0.9,4.2-1.7,6.2-2.6c0.8-0.3,1.7-0.7,2.5-1c0.1-0.1,0.3-0.1,0.4-0.2
		c0.7-0.3,1.4-0.6,2-0.9c0.1-0.1,0.2-0.1,0.4-0.2c0.3-0.2,0.7-0.3,1-0.5c0.3-0.2,0.7-0.3,1-0.5c0.6-0.3,1.2-0.6,1.7-0.8
		c0.2-0.1,0.4-0.2,0.6-0.3c0.1-0.1,0.2-0.1,0.4-0.2c0.3-0.1,0.6-0.3,1-0.4c2.1-0.9,4.3-1.8,6.4-2.6l3.7-1.6l1.9-0.8
		c0.3-0.1,0.7-0.2,1-0.5c0.2-0.1,0.4-0.3,0.5-0.6c0.1-0.3,0.2-0.5,0.1-0.8c0-0.2-0.1-0.5-0.1-0.6c-0.1-0.2-0.1-0.4-0.2-0.7
		c0-0.1,0-0.1,0-0.2c-0.1-0.2-0.1-0.4-0.2-0.7c-0.1-0.2-0.1-0.5-0.2-0.7c0-0.1-0.1-0.2-0.1-0.3c-0.3-0.9-0.6-1.7-0.8-1.9
		c-0.1-0.1-0.3-0.1-0.3-0.1c0,0,0,0,0,0c0,0-0.3,0-0.5,0.1c-0.5,0.2-1,0.4-1.5,0.5C105.4,28.7,105,28.8,104.7,28.9z"/>
	<path class="st0" d="M75.5,15.8c0.9-0.1,1.7-0.2,2.6-0.4c0.3-0.1,0.6-0.1,0.9-0.2c1-0.3,1.9-0.8,2.7-1.4c0.7-0.4,1.3-1,1.8-1.6
		c0.5-0.7,0.8-1.4,1-2.2c0.2-0.6,0.3-1.3,0.2-2c0-0.1,0-0.3-0.1-0.4c-0.1-0.5-0.4-1.1-0.8-1.5c-0.4-0.5-1-0.9-1.6-1.1
		c-0.6-0.3-1.2-0.4-1.8-0.5c-0.1,0-0.3-0.1-0.6-0.1c-0.2,0-0.5-0.1-0.7,0c-0.5,0-3.2,0.4-4.1,0.6c-0.4,0.1-0.6,0.2-0.7,0.2
		c-0.1,0-0.2,0.1-0.7,0.3c-0.6,0.3-1.1,0.6-1.6,1c-0.3,0.3-0.9,0.8-1.4,1.4c-0.1,0.1-0.2,0.3-0.4,0.4c-0.1,0.2-0.2,0.3-0.3,0.5
		c-0.1,0.1-0.2,0.3-0.2,0.4c-0.1,0.1-0.1,0.3-0.2,0.4c-0.2,0.5-0.4,1.1-0.4,1.7c0,0.6,0.2,1.3,0.5,1.8c0,0.1,0.1,0.2,0.1,0.3
		c0.2,0.4,0.4,0.9,0.8,1.2c0.2,0.2,0.4,0.4,0.7,0.5c0.6,0.3,1.2,0.6,1.8,0.7C73.8,15.8,74.7,15.9,75.5,15.8z"/>
	<path class="st0" d="M75,22.5l0.2,0.2c0.1,0.1,0.1,0.1,0.2,0.2c0.2,0.1,0.5,0.3,0.8,0.5c0.2,0.1,0.4,0.2,0.6,0.3
		c0.2,0.1,0.4,0.1,0.6,0.2c0.8,0.2,1.7,0.3,2.2,0.2c0.6,0,1.2-0.1,1.7-0.3c0.7-0.2,1.3-0.5,1.9-0.8c0.2-0.1,0.4-0.2,0.7-0.3
		c0.2-0.1,0.4-0.2,0.7-0.3c0.2-0.2,0.5-0.4,0.7-0.5l0.4-0.4c0.1-0.1,0.1-0.1,0.2-0.2L86,21l0.3-0.4l0.3-0.5c0.5-0.9,0.7-1.8,0.7-2.8
		c0.1-0.9-0.1-1.8-0.2-2.7c0,0,0-0.1,0-0.1c0-0.2,0-0.3,0-0.5c0-0.2,0-0.3-0.1-0.5l-0.1-0.4c0-0.1-0.1-0.3-0.1-0.4
		c-0.1-0.2-0.2-0.5-0.3-0.7l-0.2-0.4l-0.1-0.2l-0.6-1.3c0,0,0,0,0,0l0,0l0,0.1l-0.1,0.2l-0.2,0.3l-0.4,0.6l-0.3,0.5
		c-0.1,0.2-0.2,0.4-0.3,0.5l-0.4,0.5c-0.1,0.2-0.2,0.3-0.4,0.4c-0.1,0.1-0.2,0.3-0.4,0.4c-0.1,0.1-0.2,0.3-0.4,0.4l-0.2,0.2
		l-0.2,0.2c-0.1,0.1-0.3,0.3-0.4,0.4c-0.1,0.1-0.3,0.2-0.4,0.3c-1,0.7-2.2,1.1-3.3,1.3c-1.1,0.3-2.3,0.3-3.5,0.2
		c-0.1,0-0.3,0-0.5-0.1c-0.2-0.1-0.4-0.1-0.7-0.1C71.4,16,72,17,72,17.1l0.2,0.7l0.1,0.4l0.1,0.4l0.3,0.7c0.1,0.2,0.2,0.5,0.4,0.7
		c0.2,0.4,0.3,0.5,0.4,0.7c0.1,0.1,0.1,0.2,0.4,0.6c0.2,0.3,0.4,0.5,0.7,0.8L75,22.5z"/>
	<path class="st0" d="M88.4,26.4c-0.1-0.3-0.2-0.6-0.4-0.8c-0.1-0.1-0.2-0.2-0.3-0.3c-0.1-0.1-0.1-0.2-0.2-0.2
		c-0.2-0.3-0.4-0.6-0.7-0.9c-0.1-0.1-0.3-0.2-0.4-0.4c-0.1-0.1-0.3-0.3-0.5-0.5l-0.3-0.4l-0.2-0.2c-0.1-0.1-0.1-0.2-0.2-0.2
		c-0.2,0.2-0.4,0.5-0.7,0.7c-0.1,0.1-0.1,0.1-0.2,0.2c0,0-0.1,0.1-0.1,0.1l-0.1,0c-0.1,0.1-0.1,0.1-0.2,0.1
		c-0.4,0.3-0.9,0.5-1.3,0.6c-0.1,0-0.3,0.1-0.5,0.1c-0.7,0.1-0.6,0.7-0.6,0.8c0.1,0.5,0.1,1,0.3,1.5c0.1,0.4,0,0.2,0.2,0.7
		c0.1,0.3,0.1,0.6,0.2,0.8c0,0.1,0.1,0.2,0.1,0.4c0,0.1,0,0.1,0.1,0.2c0,0.1,0.1,0.2,0.1,0.3c0.1,0.2,0.2,0.4,0.4,0.6
		c0.1,0.2,0.3,0.3,0.4,0.4c0.3,0.2,0.6,0.4,0.9,0.4c0.2,0,0.4,0,0.6,0c0.2,0,0.4,0,0.5,0c0.3,0,0.5,0.1,0.8,0.1
		c0.2,0,0.3-0.1,0.4-0.1c0.3-0.1,0.6-0.3,0.9-0.5c0.2-0.1,0.4-0.3,0.5-0.5c0.1-0.1,0.2-0.2,0.2-0.4c0.1-0.1,0.1-0.3,0.2-0.4
		c0.1-0.5,0.2-1,0.1-1.5C88.4,26.8,88.5,26.6,88.4,26.4z"/>
	<path class="st0" d="M68.6,138.6c-0.8-2.2-1.8-4.3-3-6.3c-1.2-2-2.6-4-4-5.8c-1.9-2.4-4-4.6-6.2-6.8c-2.2-2.1-4.5-4.2-6.8-6.2
		c-1.1-0.9-2.5-2.1-3.9-3.2c-1.3-1.1-2.6-2.1-3.2-2.7c-0.1-0.1-0.2-0.2-0.3-0.3c-0.1,0.1-0.1,0.1-0.1,0.1c0,0,0-0.1,0.1-0.1
		c-0.1-0.1-0.1-0.1-0.1-0.2c-0.1,0.1-0.2,0.1-0.2,0.1c0-0.1,2.4-2.1,2.7-2.4c7.4-6.1,12.9-10.5,21.1-16.7c3.8-2.9,13.3-10.1,17.2-13
		c0.1-0.1,0.2-0.2,0.3-0.3l0.1,0c0,0,0,0,0-0.1l-1.8-9.2c-0.1-0.3-0.2-0.6-0.3-1c-0.3-1.3-0.8-3-1.3-4.1c-0.7-1.8-1.3-3.2-2-4.6
		c-0.2-0.4-0.3-0.7-0.5-1.1c-0.2-0.4-0.3-0.8-0.6-1.1c-0.2-0.4-0.4-0.8-0.6-1.2c-0.1-0.2-0.2-0.4-0.3-0.6c-0.1-0.2-0.2-0.4-0.3-0.6
		c-0.8,0.3-1.5,0.5-2.2,0.5c0,0,0,0,0,0c-1.2,0-2.9-0.4-4.2-2.4c-0.5-0.8-1.1-1.5-1.7-2.4c-0.1-0.1-0.1-0.2-0.2-0.3l-0.8,0.3l-1-3.5
		c-0.2-0.7-0.4-1.5-0.6-2.2c-0.2-0.6-0.3-1.1-0.5-1.7c-0.1,0-0.2-0.1-0.3-0.1c-0.5-0.1-1-0.2-1.4-0.2c-0.1,0-0.2,0-0.3,0
		c-0.1,0-0.2,0.1-0.3,0.1c0,0,0,0,0,0l0,0l-0.1,0.1l-0.2,0.1l-0.4,0.2c-1,0.5-1.9,1.1-2.9,1.6c-1.8,1.1-1.3,0.8-3.2,1.8
		c-1.8,1-3.5,2.1-5,3.1c-1.2,0.8-4.6,2.9-6,3.8c-1.6,1-3.7,2.2-5.3,3.2c-3.6,2.1-7.1,4.2-10.7,6.3c-3.7,2.2-7.6,4.5-11.2,6.6
		c-0.7,0.4-1.3,0.7-2,1.1c-0.3,0.2-0.7,0.4-1,0.5c-0.3,0.2-0.6,0.3-0.9,0.5L12,68.7l-0.2,0.1l-0.1,0.1l-0.1,0l0.1,0
		c0.2,0.1,0.5,0.1,0.7,0.2l0.3,0.1l0.1,0l0.2,0.1c0.3,0.1,0.6,0.2,0.8,0.3c0.3,0.1,0.6,0.2,0.8,0.3c1.1,0.4,2.2,1,3.2,1.6
		c4.1,2.5,7.8,6,10.6,9.9c1.9,2.5,3.5,5.2,5,8c1.5,2.7,2.8,5.6,4,8.4c0.6,1.3,1.3,3.1,1.9,4.7c0.6,1.6,1.1,3.2,1.2,4
		c0.1,0.4,0.1,0.8-0.1,0.6c-0.3-0.4-1.2-2.4-2.1-4.6c-1-2.2-2-4.6-2.6-5.8c-1.3-2.7-2.7-5.4-4.2-8c-1.5-2.6-3.1-5.2-5-7.5
		c-1.9-2.4-4-4.6-6.4-6.6c-0.6-0.5-1.2-0.9-1.8-1.4c-0.6-0.4-1.3-0.9-1.9-1.2L16,71.7l-0.5-0.3c-0.3-0.2-0.7-0.4-1-0.5L14,70.7
		l-0.5-0.2c-0.2-0.1-0.3-0.2-0.5-0.2L12.3,70c-0.4-0.1-0.8-0.3-1.2-0.4c-0.3-0.1-0.6-0.2-0.9-0.2l2.7,3.4c0.4,0.6,0.9,1.1,1.3,1.7
		c0.7,1,1.4,1.9,2.1,2.9c1.1,1.4,2.3,2.7,3.4,4.1c0.9,1.1,1.8,2.3,2.7,3.4c1.5,1.9,5.1,6.5,6.6,8.4c1.1,1.4,2.1,2.8,3.2,4.2
		c1.5,2,0.9,1.1,2.3,3.2c1.6,2.2,3.3,4.5,4.9,6.7c0.1,0.2,0.3,0.5,0.3,0.5c-0.1,0-1.3-1.2-1.4-1.4c-3.6-4-6.1-6.9-9.6-11.4
		c-1.6-2.1-5.7-7.3-7.3-9.4c-2.1-2.7-1.8-2.4-3.9-5.2c-0.4-0.6-1-1.4-1.5-1.9c-1.5-1.6-2.4-2.5-3.8-4.4c-0.6-0.7-1.1-1.5-1.7-2.2
		c-0.1-0.1-0.2-0.2-0.3-0.3C16.7,80,32,99.5,38.7,107.5c0.9,1.1,2,2.5,3.1,4c-0.1-0.2-0.2-0.4-0.3-0.6c-0.3-0.5-0.8-1.5-0.8-1.9
		c0-0.1,0-0.2,0.1-0.2c0.5-0.1,1.4,1.4,1.7,1.9c0.8,1.1,1.5,2.2,2.3,3.3c0.8,1.1,1.5,2.3,2.3,3.4c0.5,0.7,1.1,1.3,1.6,2
		c0.5,0.7,1,1.5,1.5,2.2c0.6,0.9,1.2,1.9,1.9,2.8c0.2,0.3,0.3,0.6,0.5,0.9c1,1.6,2.3,3.1,3.3,4.6l1.2,1.7c0.2,0.2,0.3,0.5,0.5,0.7
		c0.2,0.4,0.4,0.9,0.7,1.2c0.4,0.6,0.9,1.1,1.3,1.7c0.4,0.5,0.7,0.9,1,1.4c0.6,0.8,1.9,2.7,2.4,3.5c0.4,0.6,0.7,1.2,1.1,1.8
		c0.5,0.9,0.3,0.5,0.8,1.4l0.6,1l0.1,0.3c0,0.1,0,0.1,0,0.1l0,0.1l0.2,0.3l0.2-0.1l0.1-0.1c0,0,0.1,0,0.2-0.1
		c0.1-0.1,0.2-0.1,0.2-0.1c0,0-0.1,0.2-0.2,0.3c-0.1,0.2-0.3,0.4-0.3,0.4c0,0-0.1,0.1-0.1,0.1l1.6-0.4l0-0.1
		c-0.2-0.3-0.3-0.6-0.5-0.9c0-0.1-0.1-0.1-0.1-0.2l-0.1-0.2l-0.2-0.3c-0.5-0.8-0.9-1.7-1.4-2.8c-0.5-1-1.7-3.4-2.2-4.4
		c-0.6-1.3-0.5-1.1-1.1-2.4c-0.1-0.3-0.3-0.6-0.5-0.9c-0.6-0.7-1-1.1-1.5-1.9c-0.2-0.3-0.4-0.7-0.6-1c-0.2-0.3-0.4-0.6-0.6-0.9
		c-0.2-0.4-0.6-1.1-0.8-1.4l-0.3-0.7l-0.4-0.7c-0.2-0.4-0.2-0.3-0.4-0.7c-0.2-0.4-0.6-0.7-0.9-1c-0.3-0.2-0.9-0.9-1.1-1.1
		c-0.3-0.3-0.6-0.8-0.9-1.1l-0.9-1.1l-0.9-1.1c-0.6-0.8-1.3-1.5-1.9-2.3c-0.2-0.3-0.4-0.6-0.6-0.9c-0.4-0.5-1.1-0.7-1.6-1.2
		c-0.8-0.7-1.6-1.5-2.4-2.3c-1-1-1.9-2.1-2.8-3.2c-0.4-0.5-1.1-1.3-1.2-1.8c0-0.1,0-0.2,0.1-0.3c0.4-0.1,1.7,1.2,2.1,1.6
		c1,1,2,2,2.9,3c1,1,1.9,2.1,2.9,3.1c0.6,0.6,1.3,1.2,2,1.8c0.6,0.7,1.2,1.4,1.8,2.1c0.4,0.4,0.8,0.9,1.1,1.3
		c0.4,0.4,0.7,0.9,1.1,1.4c0.2,0.3,0.3,0.6,0.6,0.9c1.2,1.6,2.5,3.1,3.6,4.8c0.4,0.6,0.8,1.2,1.1,1.8c0.2,0.3,0.3,0.5,0.4,0.8
		c0.2,0.4,0.4,0.9,0.6,1.3c0.4,0.6,0.8,1.2,1.2,1.9c0.3,0.5,0.6,1,0.9,1.6c0.5,0.9,1.6,3.1,2,3.9c0.3,0.6,0.6,1.3,0.9,2
		c0.4,1,0.2,0.6,0.6,1.5l0.1,0.4c0,0.1,0,0.1,0,0.1l0,0.1l0,0.2l0,0.1c0,0,0,0.1,0,0l0.1,0l0.2-0.1l0.1,0l0.1,0l0.1-0.1l0.7-0.4
		c0.1,0,0.2-0.1,0.3,0c0,0.1-0.5,0.6-0.5,0.7c-0.1,0.1-0.2,0.2-0.3,0.3c-0.1,0.1-0.3,0.2-0.4,0.3c-0.1,0.1-0.3,0.2-0.4,0.4l2.3-1.9
		c-0.1-0.4-0.2-0.8-0.4-1.3C69.4,140.8,68.9,139.7,68.6,138.6z"/>
	<path class="st0" d="M111.9,102.2c-0.1-1-0.3-1.9-0.7-2.9c-0.4-0.9-0.8-1.8-1.4-2.7c-0.2-0.3-0.4-0.6-0.6-0.9
		c-0.2-0.3-0.4-0.6-0.6-0.9c-0.4-0.6-0.9-1.2-1.3-1.8c-0.5-0.6-0.9-1.2-1.4-1.7l-1.5-1.7c-0.9-0.9-1.8-1.8-2.7-2.6
		c-1.5-1.4-3.2-2.8-4.9-4c-2.6-1.8-5.4-3.4-8.3-4.8c-1.1-0.6-2.3-1.1-3.5-1.7c-0.3-0.1-0.6-0.3-0.9-0.4l-0.4-0.2l-0.2-0.1l0,0
		c0,0,0,0,0,0L83.2,76l-0.8,0.6c-3.4,2.6-11.9,9-15.3,11.6c-2.5,1.9-5,3.8-7.5,5.6c-3.6,2.7-2.1,1.5-5.7,4.2c-4,3-8,5.9-12,8.8
		c-0.1,0.1-0.3,0.2-0.5,0.3c0.7,0.3,2.3,1.4,4,2.6c1.9,1.4,4,3.1,5,4c2.3,1.9,4.6,3.9,6.8,6.1c2.2,2.1,4.2,4.4,6.1,6.8
		c1.9,2.5,3.5,5.2,4.9,8.1c0.7,1.4,1.2,2.9,1.7,4.4c0.5,1.5,0.9,3,1.1,4.6l0,0.3l0,0.2c0.9-0.9,1.7-1.8,2.6-2.7
		c1.1-1.2,2.3-2.4,3.5-3.6c2.8-2.8,5.7-5.6,8.5-8.4c3.6-3.5,7.2-7,10.7-10.5c1.1-1,2.2-2,3.2-3c3-2.9,6.1-6,9.1-9.1
		c0.6-0.6,1.3-1.3,1.9-1.9l0.9-0.9l0.3-0.9l0-0.3C111.9,102.7,111.9,102.5,111.9,102.2z"/>
	<path class="st0" d="M145,43.4c-8-3.2-13.8-5.5-22.1-9.2c-2.4-1.1-7.1-3.2-11.2-5c0.2,0.7,0.4,1.5,0.5,2.2c0,0,0,0,0,0
		c3.2,1.4,9.8,4.4,12.5,5.6c2.1,0.9,4.3,1.9,6.4,2.9c3,1.4,1.7,0.8,4.7,2.2c0.8,0.4,1.7,0.8,2.5,1.2l1.3,0.6
		c0.4,0.2,0.8,0.4,1.3,0.6c0.9,0.5,1.6,1.3,1.9,2.3c0.2,0.5,0.3,1,0.3,1.4c0,0.5,0,1-0.2,1.5c-0.1,0.3-0.4,0.8-0.4,0.7
		c0,0,0-0.2,0.1-0.4c0-0.2,0.1-0.5,0.1-0.8c0,0,0,0,0,0c0-0.6-0.1-1.2-0.2-1.4c-0.1-0.4-0.3-0.8-0.5-1.2c-0.2-0.4-0.5-0.7-0.8-0.9
		c-0.3-0.3-0.6-0.5-1-0.6l-0.3-0.1l-0.3-0.1c-0.2-0.1-0.4-0.1-0.6-0.2c-1.5-0.6-2.9-1.2-4.4-1.8c-2.9-1.2-5.9-2.4-9.3-4
		c-2.9-1.3-9.5-4.2-13.2-5.9c-0.1,1.3-0.8,2.8-3.2,3.8c-0.1,0-0.1,0-0.2,0.1c-4,1.7-9,3.8-14.3,6c-0.1,0.2-0.1,0.3-0.2,0.5
		c-0.6,1.3-1.7,3.6-2.3,4.9c-0.7,1.5-1.4,3-2.2,4.4c-0.2,0.4-0.3,0.6-0.4,0.8c-0.1,0.2-0.1,0.3-0.1,0.4c-0.1,0.2-0.1,0.5-0.1,1.2
		c0,0.7,0.3,1.4,0.6,1.9c0.4,0.5,0.9,1,1.5,1.2c0.5,0.2,1.4,0.6,2.4,1c0.9,0.4,1.9,0.8,2.5,1c1.3,0.5,2.9,1.3,4.2,1.9
		c2.8,1.3,5.6,2.6,8.3,3.8c2.9,1.3,6,2.7,8.8,4c1,0.5,2,1,3,1.5c1.9,0.9,3.9,1.4,5.8,2.2l0.6,0.3l0.3,0.1l0.3,0.1
		c0.4,0.1,0.7,0.2,1.1,0.2c0.4,0,0.8-0.1,1.1-0.2c0.4-0.1,0.7-0.3,1-0.5c0.3-0.2,0.6-0.5,0.8-0.8c0.1-0.1,0.2-0.3,0.3-0.5
		c0.1-0.2,0.2-0.3,0.3-0.5c0.4-0.8,0.7-1.6,1.1-2.4c1.9-4.2,3.8-8.4,5.8-12.5c0.9-1.9,2.4-5.1,3.1-6.1c0,0,0,0,0,0
		c0.2-0.3,0.4-0.4,0.4-0.3c0.1,0.8-2.3,6.1-3.1,7.9c-1.8,4.1-3.6,8.2-5.4,12.3l-0.7,1.6l-0.1,0.2l-0.1,0.2c-0.1,0.1-0.2,0.3-0.2,0.4
		c-0.1,0.1-0.2,0.3-0.3,0.4c-0.1,0.1-0.2,0.3-0.3,0.4c-0.9,0.9-2.2,1.5-3.5,1.5c-0.7,0-1.3-0.1-1.9-0.4l-1.6-0.7
		c-1.1-0.5-2.1-0.9-3.2-1.4c-2.6-1.1-5.3-2.1-7.9-3.3c-2.7-1.2-5.5-2.4-8.2-3.6c-3.4-1.5-6.8-3.1-10.2-4.6c-1-0.5-1.9-1-3-1.4
		c-0.4-0.2-0.7-0.3-1.1-0.5l-0.5-0.2c-0.2-0.1-0.4-0.2-0.6-0.3c-0.8-0.5-1.4-1.2-1.8-2c-0.2-0.4-0.3-0.8-0.4-1.3
		c-0.1-0.4-0.1-0.9-0.1-1.4c0-0.5,0.1-0.9,0.3-1.3c0.1-0.2,0.2-0.4,0.2-0.6l0.2-0.6c1.2-2.7,2.3-5.5,3.5-8.1
		c-0.6,0.2-1.1,0.5-1.7,0.7c-0.4,0.9-0.7,1.8-1.1,2.7c-0.7,1.6-2,4.3-2.7,5.9c-0.9,1.8-1.7,3.5-2.5,5.3c-0.1,0.1-0.1,0.3-0.1,0.3
		c0.1,0,0.2,0.1,0.2,0.1c0.1,0.1,0.2,0.1,0.4,0.2c0.3,0.1,0.6,0.3,1.3,0.6c1.6,0.8,3.3,1.4,4.8,2c1.3,0.5,4.5,1.8,5.8,2.4
		c1.6,0.7,3.5,1.6,5.1,2.3c3.4,1.5,6.7,3.1,10,4.6c3.5,1.6,7.2,3.2,10.5,4.8c1.2,0.6,2.4,1.2,3.7,1.8c1,0.5,2.1,0.9,3.1,1.3l1.6,0.6
		l0.8,0.3l0,0l0,0l0,0l0.1,0l0.1,0c0-0.1,0.1-0.2,0.1-0.3c1.6-3.9,3.3-7.9,5-11.8c2.3-5.1,4.6-10.1,6.9-15.1
		c1.1-2.3,2.8-6.1,3.7-7.3l0.2-0.5l-1.4-0.6C146,43.8,145.2,43.5,145,43.4z"/>
	<path class="st1" d="M46.2,117.6c0.3,0.4,0.6,0.8,0.9,1.3c-0.1-0.2-0.2-0.4-0.3-0.6C46.7,118,46.5,117.8,46.2,117.6z"/>
	<path class="st1" d="M57.5,134.3c-0.1-0.1-0.1-0.1-0.2-0.2c0.6,1,1.2,1.9,1.8,2.8c-0.5-0.8-0.4-0.8-1.1-1.8
		C57.9,134.9,57.7,134.5,57.5,134.3z"/>
	<path class="st1" d="M41.8,106.7c-0.2,0.1-0.5,0.3-0.7,0.4c0,0,0,0,0,0c0,0,0.1,0,0.1,0c0.2-0.2,0.5-0.4,0.8-0.7
		C42,106.6,41.9,106.6,41.8,106.7z"/>
	<path class="st1" d="M99.6,116c-1.1,1-2.2,2-3.2,3c-3.6,3.5-7.2,7-10.7,10.5c-2.9,2.8-5.7,5.6-8.5,8.4c-1.2,1.2-2.3,2.4-3.5,3.6
		c-0.9,0.9-1.7,1.8-2.6,2.7l0-0.2l0-0.3c-0.3-1.5-0.7-3.1-1.1-4.6c-0.5-1.5-1.1-3-1.7-4.4c-1.3-2.9-3-5.6-4.9-8.1
		c-1.9-2.4-3.9-4.7-6.1-6.8c-2.2-2.1-4.4-4.1-6.8-6.1c-1-0.9-3-2.5-5-4c-1.7-1.2-3.3-2.3-4-2.6c-0.1,0.1-0.2,0.1-0.2,0.1
		c0.1,0.1,0.2,0.2,0.3,0.3c0.6,0.6,1.8,1.6,3.2,2.7c1.3,1.1,2.8,2.3,3.9,3.2c2.3,2,4.6,4,6.8,6.2c2.2,2.1,4.3,4.4,6.2,6.8
		c1.5,1.8,2.8,3.8,4,5.8c1.2,2,2.2,4.2,3,6.3c0.4,1.1,0.8,2.2,1.2,3.3c0.1,0.4,0.2,0.8,0.4,1.3l0.4-0.4l0.5,2.5l39.7-40.3
		c-0.6,0.6-1.3,1.3-1.9,1.9C105.7,110,102.7,113.1,99.6,116z"/>
	<path class="st1" d="M66.4,145.1c0.1-0.2,0.2-0.3,0.2-0.3c0,0-0.2,0-0.2,0.1c-0.1,0-0.1,0.1-0.2,0.1l-0.1,0.1l-0.2,0.1l-0.2-0.3
		l0-0.1c0,0,0,0,0-0.1l-0.1-0.3l-0.6-1c-0.5-0.9-0.3-0.5-0.8-1.4c-0.4-0.6-0.7-1.2-1.1-1.8c-0.5-0.8-1.8-2.8-2.4-3.5
		c-0.3-0.5-0.7-1-1-1.4c-0.4-0.6-0.9-1.1-1.3-1.7c-0.3-0.4-0.5-0.8-0.7-1.2c-0.1-0.2-0.3-0.5-0.5-0.7l-1.2-1.7
		c-1.1-1.5-2.3-3-3.3-4.6c-0.2-0.3-0.3-0.6-0.5-0.9c-0.6-0.9-1.2-1.9-1.9-2.8c-0.5-0.7-1-1.5-1.5-2.2c-0.5-0.7-1.1-1.3-1.6-2
		c-0.8-1.1-1.5-2.3-2.3-3.4c-0.8-1.1-1.5-2.2-2.3-3.3c-0.3-0.5-1.2-2-1.7-1.9c-0.1,0-0.1,0.1-0.1,0.2c0,0.5,0.5,1.4,0.8,1.9
		c0.1,0.2,0.2,0.4,0.3,0.6c1.4,1.9,2.9,3.9,4.4,6.2c0.2,0.2,0.4,0.4,0.6,0.7c0.1,0.2,0.2,0.4,0.3,0.6c3.5,5,7.2,10.5,10.2,15.3
		c0.1,0.1,0.1,0.1,0.2,0.2c0.2,0.2,0.4,0.5,0.6,0.8c0.6,1,0.6,1.1,1.1,1.8c0.3,0.5,0.6,0.9,0.9,1.4l5.5,7.3l0.4-0.1
		c0,0,0.1-0.1,0.1-0.1C66.1,145.4,66.2,145.2,66.4,145.1z"/>
	<path class="st1" d="M62,141.3c0.6,0.9,1.1,1.6,1.7,2.3c0.5,0.7,1.1,1.2,1.8,2.1l-5.5-7.3C60.7,139.3,61.6,140.6,62,141.3z"/>
	<path class="st1" d="M68.6,144.4c0.1-0.1,0.2-0.2,0.3-0.3c0.1-0.1,0.5-0.6,0.5-0.7c0,0-0.2,0-0.3,0l-0.7,0.4l-0.1,0.1l-0.1,0
		l-0.1,0l-0.2,0.1l-0.1,0c0,0,0,0,0,0l0-0.1l0-0.2l0-0.1c0,0,0,0,0-0.1l-0.1-0.4c-0.4-1-0.2-0.6-0.6-1.5c-0.3-0.7-0.5-1.3-0.9-2
		c-0.4-0.9-1.5-3.1-2-3.9c-0.3-0.5-0.6-1.1-0.9-1.6c-0.4-0.6-0.8-1.2-1.2-1.9c-0.3-0.4-0.4-0.9-0.6-1.3c-0.1-0.3-0.3-0.5-0.4-0.8
		c-0.4-0.6-0.7-1.2-1.1-1.8c-1.1-1.6-2.4-3.2-3.6-4.8c-0.2-0.3-0.3-0.6-0.6-0.9c-0.4-0.5-0.7-0.9-1.1-1.4c-0.4-0.4-0.7-0.9-1.1-1.3
		c-0.6-0.7-1.2-1.4-1.8-2.1c-0.6-0.6-1.3-1.2-2-1.8c-1-1-1.9-2.1-2.9-3.1c-1-1-1.9-2-2.9-3c-0.4-0.4-1.6-1.8-2.1-1.6
		c-0.1,0-0.1,0.1-0.1,0.3c0.1,0.5,0.8,1.3,1.2,1.8c0.9,1.1,1.8,2.1,2.8,3.2c0.7,0.8,1.6,1.5,2.4,2.3c0.5,0.4,1.2,0.7,1.6,1.2
		c0.2,0.3,0.4,0.6,0.6,0.9c0.6,0.8,1.3,1.6,1.9,2.3l0.9,1.1l0.9,1.1c0.3,0.3,0.6,0.8,0.9,1.1c0.3,0.3,0.9,0.9,1.1,1.1
		c0.3,0.3,0.7,0.6,0.9,1c0.2,0.4,0.2,0.3,0.4,0.7l0.4,0.7l0.3,0.7c0.2,0.4,0.6,1.1,0.8,1.4c0.2,0.3,0.4,0.6,0.6,0.9
		c0.2,0.3,0.4,0.7,0.6,1c0.5,0.8,0.9,1.2,1.5,1.9c0.2,0.2,0.4,0.6,0.5,0.9c0.6,1.3,0.5,1.1,1.1,2.4c0.5,1,1.7,3.4,2.2,4.4
		c0.5,1.1,1,1.9,1.4,2.8l0.2,0.3l0.1,0.2c0,0.1,0.1,0.1,0.1,0.2c0.2,0.3,0.3,0.6,0.5,0.9l0,0.1l0.3-0.1c0.1-0.1,0.3-0.2,0.4-0.4
		C68.3,144.7,68.5,144.5,68.6,144.4z"/>
	<path class="st1" d="M150.3,44.6l-0.1,0.1l0.3-0.7l0,0l0.1-0.1c0,0-0.1-0.1-0.3-0.2l0.1-0.3l-1.8-0.8c-0.5-0.5-1.1-0.7-1.4-0.9
		l-11.6-5.4l-5.5-2.5l-0.9-0.4c-2.1-1-4.3-2-6.4-2.9c-1.2-0.5-3.1-1.4-5.1-2.3c-2.5-1.1-5.2-2.3-7.4-3.3l0-0.1
		c-0.4-0.8-0.8-1.6-1.2-2.4c-0.9-1.8-1.8-3.6-2.7-5.3c-1.2-2.5-3.2-2.9-4.2-2.9c-0.8,0-1.5,0.2-2.4,0.6c-2.1,0.9-4.2,1.8-6.3,2.7
		c-0.9,0.4-1.7,0.7-2.6,1.1l-0.1,0.1c0.2-1,0.2-2.2,0.1-3.3l0.3-0.2l-2.6-8c-1.1-3.3-4.5-5.2-9.1-5.2c-0.1,0-0.3,0-0.4,0l-0.1,0
		l-0.1,0c-4.2,0.3-7.9,2.2-10.4,5.4c-1.2,1.5-1.8,3.1-1.9,4.8l-1.1,0.4l3.6,6.1c1.3,3.2,3.1,5.6,5.2,7c-3.1,1.3-6.1,2.6-9.2,4
		c-1.9,0.8-2.9,3.2-2.8,5L62,34.4l-1.4,0.9l-1.5-2.7L2.5,67l2.2,2.8c0.2,0.3,23.1,29.6,31.5,39.8c8.3,10,25.7,37.7,25.9,38l1.2,1.9
		l5-1.1l0.7,3.6l45.3-46.1l1.7-5.1l-6.3-12.3l-11.8-9.9l-12.8-6l-2.2-11.4l5.3,2.3c1.6,0.7,3.1,1.4,4.5,2c0.5,0.2,1,0.5,1.6,0.8
		c0.6,0.3,1.2,0.6,1.9,0.9l11.8,5.3c0.9,0.4,1.8,0.8,2.7,1.2c2.2,1,4.5,2,6.8,3c1.5,0.6,2.9,1.2,4.3,1.8c1.6,0.6,3.2,1.3,4.8,2
		l6.8,3l0.2-0.4c0.1,0.1,0.3,0.1,0.4,0.2c1.9-4.3,3.8-8.5,5.7-12.8c2.3-5.3,4.7-10.7,7-16c1-2.3,4.2-9.2,4.1-10.2
		C150.8,44,150.6,44.3,150.3,44.6z M107.7,27.9C107.7,27.9,107.7,27.9,107.7,27.9c0,0,0.2,0,0.3,0.1c0.2,0.1,0.5,0.9,0.8,1.9
		c0,0.1,0.1,0.2,0.1,0.3c0.1,0.2,0.1,0.5,0.2,0.7c0.1,0.2,0.1,0.5,0.2,0.7c0,0.1,0,0.1,0,0.2c0.1,0.2,0.1,0.5,0.2,0.7
		c0,0.2,0.1,0.4,0.1,0.6c0,0.2,0,0.5-0.1,0.8c-0.1,0.3-0.3,0.5-0.5,0.6c-0.4,0.3-0.7,0.4-1,0.5l-1.9,0.8l-3.7,1.6
		c-2.1,0.9-4.3,1.8-6.4,2.6c-0.3,0.1-0.6,0.3-1,0.4c-0.1,0.1-0.2,0.1-0.4,0.2c-0.2,0.1-0.4,0.2-0.6,0.3c-0.6,0.3-1.2,0.5-1.7,0.8
		c-0.3,0.2-0.7,0.3-1,0.5c-0.3,0.2-0.7,0.3-1,0.5c-0.1,0.1-0.2,0.1-0.4,0.2c-0.7,0.3-1.4,0.6-2,0.9c-0.1,0.1-0.3,0.1-0.4,0.2
		c-0.8,0.3-1.7,0.7-2.5,1c-2.1,0.9-4.2,1.7-6.2,2.6c-0.3,0.1-0.7,0.2-1,0.3c-0.3,0.1-0.6,0.2-0.9,0.3c-0.4,0.2-0.9,0.4-1.3,0.5
		l-0.6,0.3l-0.1,0c0,0-0.1,0-0.1,0.1C74.5,48.9,74.3,49,74,49c-0.2,0-0.4,0.1-0.7,0.1c-0.1,0-0.2,0-0.3,0c-0.1,0-0.2,0-0.3-0.1
		c-0.2-0.1-0.5-0.2-0.7-0.4c-0.3-0.2-0.4-0.4-0.6-0.7l-0.4-0.6c-0.5-0.8-1.1-1.5-1.7-2.3c-0.3-0.4-0.5-0.7-0.8-1.1l-0.2-0.3
		l-0.1-0.1c0,0,0,0,0,0l0.1,0l0.4-0.2l0.2-0.1c0.3-0.1,0.7-0.3,1-0.4c0.1,0,0.2-0.1,0.2-0.1c0.2-0.1,0.3-0.1,0.5-0.2l2.3-1l1.4-0.6
		c0.5-0.2,1.1-0.5,1.6-0.6c0.9-0.3,1.8-0.6,2.7-1c1.3-0.6,2.6-1.2,3.9-1.8c1.1-0.5,2.2-0.9,3.2-1.4c1.2-0.5,3.7-1.5,5.7-2.4
		c0.2-0.1,0.3-0.1,0.5-0.2c0.7-0.3,1.3-0.5,1.7-0.7c0.2-0.1,0.5-0.2,0.7-0.3c0.3-0.1,0.5-0.2,0.8-0.3c0.2-0.1,0.5-0.2,0.7-0.3
		c0.6-0.2,1.2-0.4,1.7-0.7c0.1,0,0.2-0.1,0.3-0.1c0.4-0.1,0.6-0.2,0.8-0.3c0.3-0.1,0.4-0.2,0.7-0.3c0.2-0.1,0.5-0.2,1.1-0.4
		c1.1-0.4,2.1-0.8,3.2-1.2c0.2-0.1,0.4-0.2,0.6-0.2c0.3-0.1,0.7-0.2,1-0.4c0.5-0.2,1-0.4,1.5-0.5C107.4,28,107.7,27.9,107.7,27.9z
		 M70.5,14.4c-0.3-0.3-0.5-0.8-0.8-1.2c0-0.1-0.1-0.2-0.1-0.3c-0.3-0.6-0.5-1.2-0.5-1.8c0-0.6,0.2-1.2,0.4-1.7
		c0-0.1,0.1-0.2,0.2-0.4c0.1-0.1,0.2-0.3,0.2-0.4c0.1-0.1,0.2-0.3,0.3-0.5c0.1-0.2,0.2-0.3,0.4-0.4c0.5-0.6,1.1-1.1,1.4-1.4
		c0.5-0.4,1.1-0.7,1.6-1c0.4-0.2,0.5-0.2,0.7-0.3c0.1,0,0.2-0.1,0.7-0.2c1-0.2,3.7-0.7,4.1-0.6c0.2,0,0.5,0,0.7,0
		c0.2,0,0.4,0.1,0.6,0.1c0.6,0.1,1.2,0.3,1.8,0.5c0.6,0.3,1.1,0.6,1.6,1.1c0.4,0.4,0.6,0.9,0.8,1.5c0,0.1,0.1,0.3,0.1,0.4
		c0.1,0.7,0,1.4-0.2,2c-0.2,0.8-0.5,1.6-1,2.2c-0.5,0.7-1.2,1.2-1.8,1.6c-0.8,0.6-1.7,1.1-2.7,1.4c-0.3,0.1-0.6,0.1-0.9,0.2
		c-0.8,0.2-1.7,0.4-2.6,0.4c-0.9,0.1-1.8,0-2.6-0.2c-0.6-0.1-1.2-0.4-1.8-0.7C70.9,14.7,70.6,14.6,70.5,14.4z M74,21.4
		c-0.3-0.4-0.3-0.5-0.4-0.6c-0.1-0.1-0.2-0.2-0.4-0.7c-0.1-0.2-0.2-0.5-0.4-0.7l-0.3-0.7l-0.1-0.4l-0.1-0.4L72,17.1
		c0-0.1-0.6-1.1,1.3-0.5c0.2,0,0.5,0.1,0.7,0.1c0.2,0,0.4,0.1,0.5,0.1c1.2,0.1,2.3,0,3.5-0.2c1.2-0.3,2.3-0.7,3.3-1.3
		c0.2-0.1,0.3-0.2,0.4-0.3c0.1-0.1,0.3-0.3,0.4-0.4l0.2-0.2l0.2-0.2c0.1-0.1,0.2-0.3,0.4-0.4c0.1-0.1,0.2-0.3,0.4-0.4
		c0.1-0.1,0.3-0.3,0.4-0.4l0.4-0.5c0.1-0.2,0.2-0.4,0.3-0.5l0.3-0.5l0.4-0.6l0.2-0.3l0.1-0.2l0-0.1l0,0c0,0,0,0,0,0l0.6,1.3l0.1,0.2
		l0.2,0.4c0.1,0.2,0.2,0.5,0.3,0.7c0,0.1,0.1,0.3,0.1,0.4l0.1,0.4c0,0.2,0.1,0.3,0.1,0.5c0,0.2,0,0.3,0,0.5c0,0,0,0.1,0,0.1
		c0.1,0.9,0.3,1.8,0.2,2.7c0,1-0.3,1.9-0.7,2.8l-0.3,0.5L86,21l-0.2,0.2c-0.1,0.1-0.1,0.1-0.2,0.2l-0.4,0.4
		c-0.2,0.2-0.5,0.4-0.7,0.5c-0.2,0.1-0.4,0.2-0.7,0.3c-0.2,0.1-0.4,0.2-0.7,0.3c-0.6,0.3-1.2,0.6-1.9,0.8c-0.6,0.2-1.1,0.3-1.7,0.3
		c-0.5,0.1-1.4,0-2.2-0.2c-0.2-0.1-0.4-0.1-0.6-0.2c-0.2-0.1-0.4-0.2-0.6-0.3c-0.4-0.2-0.6-0.4-0.8-0.5c-0.1-0.1-0.2-0.1-0.2-0.2
		L75,22.5l-0.4-0.4C74.4,21.9,74.2,21.6,74,21.4z M88.3,28.5c0,0.1-0.1,0.3-0.2,0.4c-0.1,0.1-0.1,0.2-0.2,0.4
		c-0.2,0.2-0.3,0.4-0.5,0.5c-0.3,0.2-0.6,0.4-0.9,0.5c-0.1,0.1-0.3,0.1-0.4,0.1c-0.3,0-0.5-0.1-0.8-0.1c-0.2,0-0.4,0-0.5,0
		c-0.2,0-0.4,0-0.6,0c-0.3-0.1-0.6-0.2-0.9-0.4c-0.1-0.1-0.3-0.2-0.4-0.4c-0.1-0.2-0.3-0.4-0.4-0.6c0-0.1-0.1-0.2-0.1-0.3
		c0-0.1,0-0.1-0.1-0.2c0-0.1-0.1-0.3-0.1-0.4c-0.1-0.3-0.2-0.6-0.2-0.8c-0.1-0.4-0.1-0.2-0.2-0.7c-0.1-0.5-0.2-1-0.3-1.5
		c0,0-0.1-0.7,0.6-0.8c0.2,0,0.4-0.1,0.5-0.1c0.5-0.1,0.9-0.3,1.3-0.6c0.1,0,0.1-0.1,0.2-0.1l0.1,0c0,0,0.1-0.1,0.1-0.1
		c0.1-0.1,0.1-0.1,0.2-0.2c0.2-0.2,0.5-0.5,0.7-0.7c0.1,0,0.1,0.1,0.2,0.2l0.2,0.2l0.3,0.4c0.2,0.2,0.4,0.5,0.5,0.5
		c0.1,0.1,0.3,0.2,0.4,0.4c0.3,0.3,0.5,0.6,0.7,0.9c0.1,0.1,0.1,0.2,0.2,0.2c0.1,0.1,0.2,0.2,0.3,0.3c0.2,0.2,0.3,0.5,0.4,0.8
		c0.1,0.2,0,0.4,0,0.6C88.5,27.5,88.4,28,88.3,28.5z M65.6,33.7C65.6,33.7,65.6,33.7,65.6,33.7c0.1-0.4,0.2-0.8,0.4-1.1
		c0.1-0.1,0.2-0.3,0.4-0.4c0.1-0.1,0.1-0.1,0.2-0.2c0.1-0.1,0.2-0.1,0.3-0.2c1-0.4,1.8-1,2.8-1.4c1.7-0.7,3.4-1.5,5.1-2.1
		c1.7-0.6,3.4-1.1,5.1-1.6c0.1,0,0.1,0,0.2,0c0.2-0.1,0.3-0.1,0.5-0.2c0,0,0,0,0,0c0,0,0,0,0,0c0,0,0,0,0,0c0,0,0,0,0.1,0
		c0,0.1,0,0.1,0,0.2c0,0,0,0,0,0c0,0,0,0,0,0c0,0,0,0,0,0c0.2,0.3,0.5,0.7,0.5,0.8c0.2,0.6,0.4,1.2,0.6,1.7c0.2,0.5,0.6,1,0.9,1.3
		c0.4,0.3,0.8,0.5,1.4,0.7c0.9,0.2,2.1,0.2,3.1-0.1c0.5-0.2,1-0.4,1.3-0.8c0.4-0.4,0.6-0.8,0.8-1.3c0.4-1,0.4-2.2,0.1-3.1
		c-0.1-0.4-0.3-0.7-0.6-1c-0.1-0.1-0.1-0.2-0.2-0.2l-0.1-0.1c0,0-0.1-0.1-0.1-0.1c-0.1-0.1-0.2-0.1-0.2-0.2
		c-0.1-0.1-0.3-0.2-0.4-0.3c-0.2-0.2-0.4-0.3-0.6-0.5c-0.1-0.1-0.2-0.1-0.3-0.2l2-1l0.2-0.1l0.1-0.1l0.3-0.1
		c0.2-0.1,0.4-0.2,0.6-0.3c0.7-0.3,1.4-0.5,2.1-0.7c0.3-0.1,0.7-0.2,1-0.4c0.8-0.4,1.5-0.9,2.3-1.3c0.6-0.3,1.2-0.5,1.8-0.7
		c0.7-0.2,1.4-0.4,2.1-0.7l0.5-0.2c0.2-0.1,0.4-0.1,0.6-0.2c0.2-0.1,0.4-0.1,0.7-0.1c0.2,0,0.5,0.1,0.7,0.2c0.2,0.1,0.3,0.2,0.4,0.3
		c0.3,0.3,0.5,0.6,0.7,0.9c0.3,0.4,0.6,0.8,0.8,1.2c0.1,0.1,0.1,0.2,0.2,0.4c0.2,0.3,0.3,0.6,0.5,1c0.1,0.3,0.3,0.6,0.4,0.9
		c0,0.1,0.1,0.1,0.1,0.2c0.1,0.2,0.2,0.4,0.3,0.6c0.3,0.7,0.7,1.4,1,2c0,0.1,0,0.1,0.1,0.2c0.1,0.3,0.3,0.6,0.4,0.9l0.1,0.1l0.1,0.1
		l0,0.1l0,0l0,0l0,0l-0.1,0.1l-0.4,0.1l-0.2,0.1c-0.3,0.1-0.6,0.2-0.9,0.3c-0.2,0.1-0.4,0.2-0.7,0.3c-0.3,0.1-0.6,0.3-0.9,0.4
		c-0.5,0.2-1,0.5-1.5,0.7c-0.1,0-0.1,0.1-0.2,0.1c-0.5,0.2-0.9,0.4-1.4,0.6c-0.5,0.2-0.9,0.4-1.4,0.5c0,0,0,0,0,0
		c-0.6,0.2-1.5,0.5-2.4,0.9c-0.2,0.1-0.4,0.2-0.6,0.2c-0.3,0.1-0.5,0.2-0.8,0.3c-0.9,0.4-1.7,0.7-1.9,0.8c-0.2,0.1-0.4,0.2-0.5,0.2
		c-0.2,0.1-0.3,0.1-0.5,0.2c-1.6,0.7-3.1,1.4-4.7,2c-0.7,0.3-1.4,0.5-2.1,0.8c-1.5,0.6-3.1,1.1-4.6,1.7c-1.3,0.5-2.5,1.2-3.7,1.9
		c-1.6,0.8-3.2,1.5-4.8,2.1c-0.4,0.1-0.7,0.3-1.1,0.4c-0.3,0.1-0.6,0.2-0.9,0.3l-1,0.3l0,0l-0.2,0.1l0,0L69,42.3l-0.8,0.3l-0.1,0
		l-0.1,0c0,0,0,0,0,0l0-0.1l0-0.1l0,0l-0.1-0.4l-0.2-0.8l-0.1-0.6l0-0.2l-0.1-0.3c0,0,0,0,0-0.1c-0.2-0.7-0.6-1.3-0.8-2
		c-0.2-0.5-0.3-1-0.4-1.5c0-0.1-0.1-0.3-0.1-0.4c-0.1-0.5-0.3-1-0.4-1.5c0-0.2-0.1-0.3-0.1-0.5l0-0.1c0-0.1,0-0.1,0-0.2
		C65.6,33.9,65.6,33.8,65.6,33.7z M10,69.1l-0.2-0.3c-0.3-0.4-0.6-0.8-1-1.2l-0.4-0.5l17.4-10.6c0.2-0.1,0.5-0.3,0.7-0.4
		c1.9-1.1,3.9-2.3,5.7-3.4c0.6-0.4,1.2-0.8,1.8-1.1l21.3-13c0.3-0.2,0.8-0.4,1.2-0.7c0.3-0.2,0.6-0.4,0.9-0.5l0.2-0.1l0.1,0
		c0,0,0.1-0.1,0.1-0.1l1.2,2.3c-0.5,0.3-1.1,0.6-1.6,1c-3.7,2.3-7.4,4.5-11.1,6.7c-1.3,0.8-2.6,1.4-3.9,2.2c-4.3,2.6-8.6,5.2-13,7.8
		c-3.4,2.1-6.9,4.1-10.3,6.2c-1.4,0.9-2.9,1.8-4.3,2.7l-2.1,1.4l-1.4,0.9l-0.9,0.6L10.2,69L10,69.1z M83.7,75.5l12.4,5.8l11,9.2
		l5.4,10.5l-0.7,2.2l-0.3,0.9l-0.9,0.9L71,145.4l-0.5-2.5l-0.4,0.4l-2.3,1.9l-0.3,0.1l-1.6,0.4l-0.4,0.1l-0.7,0.2c0,0-1.9-3-4.8-7.5
		c-0.3-0.4-0.6-0.9-0.9-1.4c-0.6-0.9-1.2-1.8-1.8-2.8c-3.1-4.7-6.7-10.2-10.2-15.3c-0.3-0.4-0.6-0.8-0.9-1.3
		c-1.6-2.2-3.1-4.3-4.4-6.2c-1.1-1.5-2.2-2.8-3.1-4c-6.6-8-22-27.5-28.5-35.8c0.1,0.1,0.2,0.2,0.3,0.3c0.6,0.7,1.2,1.5,1.7,2.2
		c1.5,1.8,2.4,2.8,3.8,4.4c0.5,0.5,1.1,1.3,1.5,1.9c2.1,2.7,1.8,2.4,3.9,5.2c1.6,2.1,5.7,7.3,7.3,9.4c3.5,4.5,6.1,7.4,9.6,11.4
		c0.2,0.2,1.4,1.4,1.4,1.4c0,0-0.1-0.3-0.3-0.5c-1.6-2.2-3.3-4.5-4.9-6.7c-1.5-2-0.8-1.1-2.3-3.2c-1-1.4-2.1-2.8-3.2-4.2
		c-1.5-1.9-5.1-6.6-6.6-8.4c-0.9-1.1-1.8-2.3-2.7-3.4c-1.1-1.4-2.3-2.7-3.4-4.1c-0.7-0.9-1.4-1.9-2.1-2.9c-0.4-0.6-0.9-1.1-1.3-1.7
		l-2.7-3.4c0.3,0.1,0.6,0.2,0.9,0.2c0.4,0.1,0.8,0.3,1.2,0.4l0.6,0.2c0.2,0.1,0.3,0.1,0.5,0.2l0.5,0.2l0.5,0.3
		c0.3,0.2,0.7,0.3,1,0.5l0.5,0.3l0.5,0.3c0.7,0.4,1.3,0.8,1.9,1.2c0.6,0.5,1.2,0.9,1.8,1.4c2.4,1.9,4.5,4.2,6.4,6.6
		c1.8,2.4,3.5,4.9,5,7.5c1.5,2.6,2.9,5.3,4.2,8c0.6,1.2,1.6,3.6,2.6,5.8c1,2.2,1.8,4.2,2.1,4.6c0.2,0.2,0.1-0.2,0.1-0.6
		c-0.1-0.8-0.6-2.3-1.2-4c-0.6-1.6-1.3-3.4-1.9-4.7c-1.2-2.8-2.6-5.6-4-8.4c-1.5-2.7-3.1-5.4-5-8c-2.8-3.9-6.5-7.4-10.6-9.9
		c-1-0.6-2.1-1.2-3.2-1.6c-0.3-0.1-0.6-0.2-0.8-0.3c-0.3-0.1-0.6-0.2-0.8-0.3l-0.2-0.1l-0.1,0l-0.3-0.1c-0.2-0.1-0.4-0.1-0.7-0.2
		l-0.1,0l0.1,0l0.1-0.1l0.2-0.1l0.5-0.3c0.3-0.2,0.6-0.4,0.9-0.5c0.3-0.2,0.7-0.4,1-0.5c0.7-0.4,1.3-0.7,2-1.1
		c3.6-2,7.5-4.4,11.2-6.6c3.6-2.1,7.1-4.2,10.7-6.3c1.7-1,3.7-2.2,5.3-3.2c1.4-0.9,4.7-3,6-3.8c1.5-1,3.2-2.1,5-3.1
		c1.8-1.1,1.3-0.8,3.2-1.8c1-0.5,1.9-1.1,2.9-1.6l0.4-0.2l0.2-0.1l0.1-0.1l0,0c0,0,0,0,0,0c0.1,0,0.2-0.1,0.3-0.1c0.1,0,0.2,0,0.3,0
		c0.5,0,0.9,0,1.4,0.2c0.1,0,0.2,0.1,0.3,0.1c0.2,0.6,0.3,1.2,0.5,1.7c0.2,0.7,0.4,1.4,0.6,2.2l1,3.5l0.8-0.3
		c0.1,0.1,0.1,0.2,0.2,0.3c0.6,0.9,1.2,1.6,1.7,2.4c1.3,2,3,2.4,4.2,2.4c0,0,0,0,0,0c0.7,0,1.4-0.1,2.2-0.5c0.1,0.2,0.2,0.4,0.3,0.6
		c0.1,0.2,0.2,0.4,0.3,0.6c0.2,0.4,0.4,0.8,0.6,1.2c0.2,0.4,0.4,0.8,0.6,1.1c0.2,0.4,0.3,0.7,0.5,1.1c0.7,1.4,1.3,2.8,2,4.6
		c0.4,1.2,1,2.9,1.3,4.1c0.1,0.4,0.2,0.7,0.3,1l1.8,9.2c0,0,0,0,0,0.1l-0.1,0c-0.1,0.1-0.2,0.2-0.3,0.3c-3.8,2.9-13.3,10.1-17.2,13
		c-8.2,6.2-13.7,10.6-21.1,16.7c-0.3,0.3-2.7,2.3-2.7,2.4c0,0,0.1,0,0.2-0.1c0,0,0,0.1,0.1,0.2c-0.1,0.1-0.1,0.1-0.1,0.1
		c0,0,0.1,0,0.1-0.1c0.1,0,0.1-0.1,0.2-0.1c0,0-0.1,0-0.1,0c-0.1,0-0.1,0-0.1,0c0,0,0,0,0,0c0.2-0.1,0.5-0.3,0.7-0.4
		c0.1-0.1,0.2-0.1,0.3-0.2c0.7-0.6,1.5-1.3,1.7-1.5c7.4-6.1,12.8-10.5,20.9-16.7c3.8-2.9,13.2-10,17-12.9c0.3-0.2,0.5-0.4,0.7-0.5
		L83.7,75.5z M82,56.3l-3.3-6.7c1.8-0.8,3.6-1.5,5.4-2.2c0.8-0.3,1.5-0.6,2.2-0.9l0,0.1c-0.9,2.1-1.8,4.1-2.7,6.2
		C83,53.9,82.5,55.1,82,56.3z M147.8,45.1c-0.9,1.2-2.6,5-3.7,7.3c-2.3,5-4.6,10-6.9,15.1c-1.7,3.9-3.4,7.9-5,11.8
		c0,0.1-0.1,0.2-0.1,0.3l-0.1,0l-0.1,0l0,0l0,0l0,0l-0.8-0.3l-1.6-0.6c-1-0.4-2.1-0.8-3.1-1.3c-1.3-0.6-2.4-1.2-3.7-1.8
		c-3.3-1.6-7.1-3.3-10.5-4.8c-3.3-1.5-6.7-3-10-4.6c-1.6-0.7-3.5-1.6-5.1-2.3c-1.4-0.6-4.6-1.9-5.8-2.4c-1.5-0.6-3.2-1.3-4.8-2
		c-0.7-0.3-1-0.5-1.3-0.6c-0.1-0.1-0.2-0.1-0.4-0.2c-0.1,0-0.1-0.1-0.2-0.1c0,0,0.1-0.1,0.1-0.3c0.8-1.8,1.7-3.5,2.5-5.3
		c0.7-1.6,2-4.3,2.7-5.9c0.4-0.9,0.8-1.8,1.1-2.7c0.6-0.2,1.1-0.5,1.7-0.7c-1.2,2.7-2.3,5.4-3.5,8.1l-0.2,0.6
		c-0.1,0.2-0.2,0.4-0.2,0.6c-0.2,0.4-0.3,0.9-0.3,1.3c0,0.5,0,0.9,0.1,1.4c0.1,0.4,0.2,0.9,0.4,1.3c0.4,0.8,1,1.5,1.8,2
		c0.2,0.1,0.4,0.2,0.6,0.3l0.5,0.2c0.4,0.2,0.7,0.3,1.1,0.5c1,0.5,2,1,3,1.4c3.4,1.5,6.8,3.1,10.2,4.6c2.7,1.2,5.5,2.5,8.2,3.6
		c2.6,1.1,5.3,2.1,7.9,3.3c1.1,0.5,2.1,0.9,3.2,1.4L127,75c0.6,0.3,1.3,0.4,1.9,0.4c1.3,0,2.6-0.5,3.5-1.5c0.1-0.1,0.2-0.2,0.3-0.4
		c0.1-0.1,0.2-0.3,0.3-0.4c0.1-0.1,0.2-0.3,0.2-0.4l0.1-0.2l0.1-0.2l0.7-1.6c1.8-4.1,3.6-8.2,5.4-12.3c0.8-1.8,3.2-7.1,3.1-7.9
		c0-0.2-0.2,0-0.4,0.3c0,0,0,0,0,0c-0.8,1-2.3,4.2-3.1,6.1c-1.9,4.1-3.9,8.3-5.8,12.5c-0.4,0.8-0.7,1.6-1.1,2.4
		c-0.1,0.2-0.2,0.4-0.3,0.5c-0.1,0.2-0.2,0.3-0.3,0.5c-0.2,0.3-0.5,0.6-0.8,0.8c-0.3,0.2-0.7,0.4-1,0.5c-0.4,0.1-0.8,0.2-1.1,0.2
		c-0.4,0-0.8-0.1-1.1-0.2l-0.3-0.1l-0.3-0.1l-0.6-0.3c-1.9-0.8-3.9-1.3-5.8-2.2c-1.1-0.5-2-1-3-1.5c-2.8-1.4-5.9-2.7-8.8-4
		c-2.8-1.3-5.6-2.6-8.3-3.8c-1.3-0.6-2.9-1.3-4.2-1.9c-0.6-0.2-1.5-0.6-2.5-1c-0.9-0.4-1.8-0.7-2.4-1c-0.6-0.2-1.1-0.7-1.5-1.2
		c-0.4-0.5-0.6-1.2-0.6-1.9c0-0.7,0.1-1,0.1-1.2c0-0.1,0.1-0.2,0.1-0.4c0.1-0.2,0.2-0.4,0.4-0.8c0.7-1.5,1.4-3,2.2-4.4
		c0.6-1.3,1.7-3.5,2.3-4.9c0.1-0.2,0.1-0.3,0.2-0.5c5.3-2.2,10.3-4.3,14.3-6c0.1,0,0.1,0,0.2-0.1c2.4-1,3.1-2.5,3.2-3.8
		c3.7,1.7,10.4,4.6,13.2,5.9c3.5,1.6,6.4,2.8,9.3,4c1.5,0.6,2.9,1.2,4.4,1.8c0.2,0.1,0.4,0.1,0.6,0.2l0.3,0.1l0.3,0.1
		c0.3,0.2,0.7,0.4,1,0.6c0.3,0.3,0.6,0.6,0.8,0.9c0.2,0.4,0.4,0.7,0.5,1.2c0,0.2,0.2,0.8,0.2,1.4c0,0,0,0,0,0c0,0.3-0.1,0.6-0.1,0.8
		c-0.1,0.2-0.1,0.4-0.1,0.4c0,0,0.3-0.4,0.4-0.7c0.1-0.5,0.2-1,0.2-1.5c0-0.5-0.1-1-0.3-1.4c-0.4-0.9-1.1-1.7-1.9-2.3
		c-0.5-0.3-0.9-0.4-1.3-0.6l-1.3-0.6c-0.8-0.4-1.7-0.8-2.5-1.2c-3-1.4-1.7-0.8-4.7-2.2c-2.1-1-4.2-2-6.4-2.9
		c-2.7-1.2-9.4-4.2-12.5-5.6c0,0,0,0,0,0c-0.2-0.7-0.4-1.4-0.5-2.2c4.1,1.8,8.8,3.9,11.2,5c8.3,3.7,14.2,6.1,22.1,9.2
		c0.2,0.1,0.9,0.3,1.6,0.6l1.4,0.6L147.8,45.1z"/>
	<path class="st1" d="M81.7,75.5c-3.8,2.9-13.2,10-17,12.9c-8.1,6.2-13.5,10.6-20.9,16.7c-0.2,0.2-1,0.9-1.7,1.5
		c-0.3,0.3-0.6,0.5-0.8,0.7c0,0,0.1,0,0.1,0c0.2-0.1,0.4-0.2,0.5-0.3c4-2.9,8-5.9,12-8.8c3.6-2.6,2-1.5,5.7-4.2
		c2.5-1.9,5-3.7,7.5-5.6c3.4-2.6,11.9-9,15.3-11.6l0.8-0.6l0.3-0.2c0,0,0,0,0,0l0,0l0.2,0.1l0.4,0.2c0.3,0.1,0.6,0.3,0.9,0.4
		c1.2,0.5,2.3,1.1,3.5,1.7c2.9,1.4,5.6,3,8.3,4.8c1.7,1.2,3.3,2.5,4.9,4c0.9,0.8,1.8,1.7,2.7,2.6l1.5,1.7c0.5,0.6,1,1.2,1.4,1.7
		c0.5,0.6,0.9,1.2,1.3,1.8c0.2,0.3,0.4,0.6,0.6,0.9c0.2,0.3,0.4,0.6,0.6,0.9c0.5,0.9,1,1.8,1.4,2.7c0.4,0.9,0.7,1.9,0.7,2.9
		c0,0.2,0,0.5,0,0.7l0,0.3l0.7-2.2l-5.4-10.5l-11-9.2l-12.4-5.8l-1.3-0.6C82.2,75.1,82,75.3,81.7,75.5z"/>
</g>
</svg>
