<?xml version="1.0" encoding="UTF-8"?><svg id="Layer_1" xmlns="http://www.w3.org/2000/svg" viewBox="0 0 149.79 150"><defs><style>.cls-1{fill:#b1b1b1;}</style></defs><path class="cls-1" d="M79.98,56.68c.25-.08,.34-.36,.37-.66,.12-1.13-5.42-7.26-6.2-8.39-1.69-2.43-3.39-4.88-5.25-7.2-1.43-1.78-3.06-3.45-4.69-5.03-.97-.94-2.51-1.38-3.28-2.49-.44-.63-.67-1.32-1.06-1.96l-.42-.67c-.18-.27-.46-.64-.7-.96-.5-.68-1.04-1.37-1.6-2.08-.56,.55-1.12,1.1-1.68,1.65-.29,.28-.57,.56-.85,.84l-.59,.56c-1.45,1.34-2.93,2.65-4.37,4.01-.68,.64-1.55,1.36-2.11,2.1-.49,.64-1.68,2.09-2.03,2.74-.43,.8-.98,1.63-1.76,2.22-.82,.63-.54,.48-1.36,1.12-.85,.65-1.71,1.31-2.56,1.96-.74,.58-1.97,1.62-2.66,2.26-.58,.54-.97,1.2-1.46,1.79-.52,.63-1.17,1.14-1.73,1.73-1.4,1.47-1.91,2.53-2.88,4.18-.31,.53-.94,1.11-1.4,1.53-2.19,2.02-2.03,1.65-4.2,3.71-1.67,1.58-5.63,5.66-7.26,7.29-3.47,3.47-5.38,6.3-7.9,10.25-.12,.18-.76,1.6-.68,1.74,.04,.07,.4-.03,.56-.16,1.86-1.53,3.71-3.07,5.55-4.63,1.64-1.4,.96-.77,2.58-2.21,1.12-1,2.27-1.99,3.31-3.07,1.42-1.48,5.06-5.09,6.43-6.62,.84-.94,1.74-1.83,2.55-2.79,1.01-1.19,1.88-2.48,2.94-3.62,.68-.74,1.6-1.28,2.38-1.95,.46-.39,.86-.87,1.28-1.31l3.01-3.22c2.75-2.96,5.32-6.38,8.32-9.14,.53-.49,1.21-.8,1.72-1.29,1.73-1.68,3.42-3.41,5.11-5.12l1.55-1.53s.02,.03,.02,.02c0,0,0-.02,.02-.04,0,0,.02-.02,.04-.03,.03,0-.01-.09,.22,.15l1.03,.94c.69,.62,1.37,1.25,1.98,1.95,1.96,2.24,3.76,4.63,5.67,6.93,1.85,2.23,3.73,4.44,5.62,6.64,.83,.97,7.29,8.27,8.44,7.9Z"/><path class="cls-1" d="M12.35,27.85c.09,.36,.24,.71,.45,1.03,.18,.33,.39,.64,.57,.96,.49,.93,1.1,1.8,1.83,2.59,.71,.8,1.57,1.5,2.51,2.06,1.88,1.15,4.23,1.62,6.4,1.2,1.09-.24,2.13-.62,3.09-1.13,.94-.53,1.81-1.17,2.55-1.91,.6-.61,1.05-1.28,1.61-1.9,.27-.31,.57-.6,.81-.93,.27-.32,.5-.67,.67-1.05,.18-.32,.03-1.1,.22-1.39,.12-.21,.38-.43,.42-.67,.09-.44-.13-.89-.22-1.31-.08-.39-.16-.78-.34-1.12-.05-.08-.13-.17-.24-.17-.06,0-.11,.03-.15,.05-.36,.19-.73,.37-.94,.61-.16,.2-.27,.43-.35,.67-.07,.24-.14,.48-.28,.67-.15,.23-.24,.54-.37,.83-.1,.31-.23,.6-.38,.83-.48,.69-.87,1.48-1.48,2.07-1.29,1.35-3.14,2.08-4.92,2.15-1.19,.06-2.3-.33-3.42-.44-.81-.06-1.61-.34-2.3-.8-.91-.63-1.62-1.57-2.14-2.52-1.03-1.85-1.49-4.04-.99-6.17,.48-2.07,1.85-4,3.72-5.08,.66-.39,1.38-.68,2.13-.85,.74-.2,1.51-.25,2.27-.25,1.24,.02,2.52,.22,3.66,.8,1.12,.56,1.98,1.5,2.71,2.47,.52,.7,1,1.46,1.34,2.29,.19,.47,.31,.97,.42,1.47,.08,.27,.11,.56,.2,.84,.08,.21,.26,.56,.47,.18,.13-.26,.16-.62,.18-.9,.07-.92-.05-1.87-.27-2.81-.3-1.18-.85-2.31-1.58-3.36-.58-.8-1.19-1.69-2.08-2.26-1.51-.97-3.32-1.4-5.11-1.48-1.24-.05-2.53,.02-3.75,.43-1.58,.54-2.85,1.52-4.14,2.54-.83,.7-1.39,1.55-1.81,2.53-.19,.38-.35,.77-.54,1.14-.16,.39-.31,.78-.41,1.19-.32,1.31-.22,2.68-.18,3.98,.02,.95-.07,1.94,.18,2.92Z"/><path class="cls-1" d="M149.7,113.78l-.1-16.1-.04-17.09v-1.39s-21.28-12.36-21.28-12.36l-16.26-9.14-3.21-1.85-16.29,9.19c-1.03,.6-2.07,1.21-3.13,1.83V11.12c0-6.13-4.99-11.12-11.12-11.12H11.12C4.99,0,0,4.99,0,11.12V78.27c0,6.13,4.99,11.12,11.12,11.12h57.15c.02-.47,.06-.95,.1-1.42-.01,.21-.02,.43-.03,.64-.04,.88-.08,1.71-.16,2.48-.14,1.24-.16,2.72-.17,3.87,0,.53,0,1.87,0,1.87,0,1.22,0,2.38-.04,3.37-.11,2.69-.08,5.43-.04,8.2,.02,1.54,.04,3.07,.03,4.57v5.56s-.07,7.79-.07,7.79l5.44,3.23,3.54,2.14,7.07,4.29c1.35,.82,2.71,1.66,4.07,2.51,3.74,2.33,7.6,4.73,11.55,6.67l3.69,1.84,1.85,.95,3.73,2.04,5.4-3.23c3.02-1.77,6.2-3.53,9.34-5.27,1.77-.98,3.52-1.95,5.26-2.93,2.93-1.65,5.97-3.41,9.57-5.51l11.39-6.7-.09-12.59Zm-83.72-28.04c-9.21-.24-23.12-.52-33.24-.58-.87,0-1.73,0-2.6,0-2.82,0-5.75,.03-8.96,.08l-5.77,.12-4.19,.11s-.38,0-.47,0h-.24s-.49-.05-.49-.05l.16,.02h-.13c-1.77-.18-3.44-.88-4.71-1.98-.69-.61-1.26-1.32-1.63-2.07-.39-.78-.62-1.64-.66-2.48v-.11c0-1.42,.11-2.76,.21-4.18,.07-.98,.15-1.96,.19-2.97,.22-4.77,.29-9.94,.35-14.98,.02-1.98,.05-3.95,.08-5.88,0,0,.38-21.44,.4-22.28,.05-2.58,.1-5.24,.02-7.58l-.17-5.76c-.02-.85-.06-1.7-.09-2.49-.06-1.31-.09-2.28-.05-2.77,.07-1.18,.44-2.29,1.06-3.19,.61-.92,1.44-1.67,2.32-2.12l.02-.34,1.68-.28,.16-.04s.34-.08,.42-.09l.41-.05c.14-.02,.3-.04,.52-.04h.11s.25,0,.25,0c.34,0,.8,.02,1.47,.05l10.67,.47c3,.12,8.4,.28,11.68,.34,.3,0,.61,0,.91,0,1.42,0,2.82-.05,4.17-.1h.15c.85-.04,1.69-.07,2.55-.09,.56-.01,1.11-.02,1.67-.02,1.04,0,2.08,.02,3.12,.03,1.06,.02,2.11,.03,3.17,.03h.22c5.77-.01,9.44-.27,14.09-.6l2.76-.19c.85-.06,1.94-.09,3.32-.09,1.19,0,2.39,.02,3.42,.04l3.97,.08,.45,.04h.21s.1,.02,.1,.02c.1,.01,.2,.03,.33,.06l.38,.07c1.09,.25,1.81,.66,2.34,1.02,.56,.38,1.23,.9,1.92,1.85,.56,.79,1.23,1.92,1.37,3.74v.09s-.13,34.3-.13,34.3c-.03,5.89,.02,18.58,.16,24.4-.4,.24-.79,.47-1.19,.72-.9,.54-1.81,1.09-2.76,1.67l-.28,.17h0s-6.14,3.68-6.14,3.68l-.47,.29c-.46,.28-.92,.57-1.39,.86-.57,.36-1.14,.73-1.69,1.12-.2,.14-.38,.28-.55,.41-.82,.65-1.22,1.15-1.28,1.67-.01,.1-.01,.21,0,.32,.01,.11,.04,.22,.07,.33l.3,.85-.42,.81c-.33,.64-.57,1.28-.74,1.94-.07,.3-.13,.6-.18,.91,0,0,.01,0,.02,0-.06,.36-.11,.71-.15,1.07,0-.09,.01-.17,.01-.26-.81-.03-1.66-.05-2.55-.07Zm80.54,38.81l-37.73,20.25-36.05-20.23-3.87-29.31,1.33-14.58,37.04-20.19,40,22.07-.72,41.99Z"/><path class="cls-1" d="M106.86,101.08c-.25-.27-.49-.53-.73-.73-.15-.12-.4-.22-.67-.32-.32-.12-.67-.26-1.02-.49-1.04-.7-2.03-1.49-2.99-2.25-1.95-1.55-3.8-3.01-5.98-3.8l-5.35-1.84c-.15-.05-.31-.1-.46-.15-.25-.08-.5-.15-.74-.24-.42-.15-9.68-5.07-9.92-5.25l-.1-.06-.06-.04c-.25-.19-.48-.39-.72-.6-.28-.25-.54-.48-.81-.65,0,0-.32,0-.32,0-.3,0-.93,0-1.36-.47-.1-.11-.18-.23-.24-.34-.05,0-.11,.02-.17,.02-.18,.03-.35,.05-.52,.06h-.19c-.12,0-.23,0-.34,0-.05,0-.11,0-.16,0-.04,.3-.08,.63-.05,.77,.02,.09,.12,.18,.33,.36,.19,.16,.42,.36,.62,.63,.1,.14,.45,.33,.72,.48,.29,.16,.6,.33,.87,.55,.15,.12,.31,.23,.48,.33,.24,.15,.49,.28,.74,.4l.22,.11c.37,.18,.73,.36,1.02,.54,1.67,.9,12.15,6.72,13.67,7.77l.89,.61c.33,.23,.65,.47,.97,.72,.79,.6,1.53,1.17,2.36,1.37,.88,.22,2.02,.53,3.06,1.09,.79,.42,1.53,.91,2.26,1.4,.4,.26,.79,.53,1.19,.77,.69,.43,1.44,.85,2.35,1.34l2.28,1.21s0,.03,0,.04c-.09,.39-.1,.81-.12,1.26-.01,.31-.02,5.06-.06,5.37-.03,.26-.08,.53-.14,.79-.06,.27-.11,.52-.11,.73,0,.2,.02,.4,.05,.59,.06,.5,.14,1.12-.09,1.8-.02,.06,.07,.31,.12,.48l.07,.19c.12,.37,.11,.71,.11,.95,0,.08,0,.2,0,.24,.03,.15,.09,.3,.14,.45,.16,.47,.36,1.04,.24,1.7-.08,.45-.32,.8-.51,1.09-.04,.06-.09,.14-.13,.21,.06,.21,.15,.51,.09,.88-.11,.66-.32,1.3-.52,1.91-.36,1.1-.67,2.06-.38,2.91,.32,.87,.66,1.74,1.02,2.66,.03,.07,.06,.13,.09,.2,.16,.36,.41,8.89,.23,9.54-.05,.17-.12,.34-.19,.51,.33,.38,.4,.72,.36,.99,.08,.07,.15,.13,.22,.2,.06,.05,.09,.08,.11,.1h.03c.29-.06,.81-.15,1.05-.23,.05-.11,.12-.27,.24-.44,0-.01,0-.02,0-.04,0-.19-.01-.48,.1-.79,.03-.07,0-.28-.02-.45-.03-.24-.05-.48-.04-.62-.04-1.01,.14-9.98,.31-10.91l.09-.51c.04-.22,.1-.44,.17-.66,.1-.36,.17-.6,.11-.71-.29-.49-.62-1.16-.66-1.89-.03-.51,.05-1,.11-1.44,.03-.21,.06-.42,.08-.63,.06-.73,0-1.47-.07-2.25-.04-.45-.08-.9-.1-1.35-.02-.38-.04-.77-.06-1.16-.05-.85-.1-1.73-.08-2.61,0-.34,.02-.68,.03-1.01,.02-.52,.05-1.05,.03-1.57,0-.3-.05-5.04-.1-5.35-.02-.16-.04-.32-.06-.49l.76-.83c.69-.4,2.3-1.73,3-2.14,1.49-.89,3.04-1.8,4.57-2.64,.6-.33,1.21-.65,1.82-.98,.99-.52,1.98-1.05,2.95-1.61,.6-.34,1.18-.72,1.76-1.1,.65-.42,11.75-7.14,12.45-7.53,.67-.38,1.36-.71,2.03-1.03,.62-.3,1.25-.59,1.85-.93,.66-.37,1.33-.78,2.04-1.26l-1.53,.43c-.8,.23-1.61,.46-2.42,.66-.38,.1-.78,.16-1.17,.23-.56,.09-1.1,.18-1.52,.36-.88,.37-12.15,7.1-13.04,7.57-.54,.29-1.07,.57-1.62,.84-.44,.22-.89,.41-1.34,.61-.59,.25-1.14,.49-1.66,.78-.43,.23-.83,.49-1.23,.75-.81,.52-1.65,1.05-2.65,1.42-.62,.23-1.13,.63-1.72,1.1l-.3,.24c-.4,.31-.8,.53-1.2,.74-.26,.14-.53,.28-.79,.46-.42,.28-.57,.44-.73,.61-.16,.17-.31,.33-.56,.51l-.44,.33-.52-.18c-.29-.1-.56-.25-.79-.43-.15-.12-.28-.26-.39-.42l-.42-.43-.11-.12Z"/></svg>