<?xml version="1.0" encoding="UTF-8"?><svg id="Layer_1" xmlns="http://www.w3.org/2000/svg" xmlns:xlink="http://www.w3.org/1999/xlink" viewBox="0 0 96.27 110"><defs><style>.cls-1{fill:url(#linear-gradient);}.cls-2{fill:#fff;}</style><linearGradient id="linear-gradient" x1="22.66" y1="22.19" x2="82.55" y2="82.07" gradientUnits="userSpaceOnUse"><stop offset="0" stop-color="#137272"/><stop offset="1" stop-color="#1e3287"/></linearGradient></defs><g><path d="M67.51,55.05c.05-.25-1.93-1.73-3.63-3.04,1.2,1.05,2.6,2.29,3.58,3.28,.02-.08,.03-.16,.05-.24Z"/><path class="cls-1" d="M96.27,15.35v-1.16c-.01-.28-.01-.54-.04-.92-.15-2.95-1.27-5.85-3.18-8.18l-.06-.07c-1.99-2.37-4.7-4.02-7.63-4.65-.94-.21-1.91-.32-2.84-.32h-.51s-2.79,.16-2.79,.16c-1.03,.06-2.22,.12-3.34,.14h-.09c-.59,0-1.34-.07-2.13-.14-.72-.06-1.43-.13-2.15-.17-.54-.03-1.1-.04-1.66-.04-.36,0-.72,0-1.08,0l-7.65,.06c-2.44,.02-4.93,.1-7.33,.18l-3.36,.1c-.23,0-.45,.01-.76,.03-1.39,.07-2.55,.37-3.31,.6l-.14,.04-.14,.05c-2.25,.77-4.25,2.09-5.78,3.82-1.54,1.7-2.64,3.81-3.17,6.11l-.03,.13-.03,.14c-.07,.34-.18,.91-.23,1.59v.08c-.03,.38-.05,.79-.06,1.09l-.03,1.12c0,.23-.05,.59-.1,.98-.08,.69-.18,1.54-.2,2.51-.03,1.63-.05,3.27-.06,4.91l-4.37,2.27c-.92,.48-1.75,.95-2.54,1.43-1.96,1.18-3.62,2.38-5.07,3.66-1.84,1.63-4.51,2.87-7.35,4.19-.8,.37-1.6,.74-2.38,1.12l-1.15,.55c-1.27,.61-2.58,1.24-3.91,1.94-1.02,.54-1.93,1.06-2.78,1.58-.46,.28-.92,.58-1.37,.88l-.79,.52-4.67,3.15,.51,5.81,.06,.61c.04,.33,.07,.53,.11,.73l.11,.62c.04,.25,.09,.49,.12,.76,.04,.32,.03,.44,.03,.44-.04,.38-.11,.76-.17,1.13-.2,1.18-.45,2.64-.4,4.36,.01,.46,.02,.91,.03,1.36,.04,2.05,.08,4.37,.54,6.88,.04,.22-.05,.95-.12,1.55-.07,.54-.13,1.1-.18,1.67-.22,2.68-.27,5.27-.15,7.71,.03,.56,.07,1.13,.12,1.69,.04,.55,.09,1.08,.1,1.51v.2s-.01,.34-.01,.34l-.34,5.23,5.6,3.95,.17,.12c2.09,1.39,3.83,2.46,5.48,3.37,1.31,.73,2.62,1.3,3.78,1.81,1.15,.5,2.23,.98,3.03,1.48,.94,.59,1.93,1.33,2.98,2.11,1.21,.9,2.45,1.83,3.87,2.73,1.64,1.04,3.28,1.8,4.73,2.47,.59,.27,1.17,.54,1.72,.82l1.59,.81,5.35,2.9,6.27-3.81c.61-.37,1.23-.74,1.86-1.1,1.28-.73,2.53-1.4,3.71-1.99,.44-.22,1.06-.45,1.72-.69,.9-.34,1.92-.72,3-1.24,1.28-.62,2.33-1.35,3.18-1.93,.28-.19,.56-.39,.84-.57,.63-.4,1.27-.8,1.9-1.19,1.3-.81,2.63-1.65,3.97-2.54,.83-.55,1.5-1.13,1.98-1.56,.14-.12,.33-.29,.44-.37,.62-.35,1.24-.68,1.84-.99l1.14-.58,5.69-2.99,.25-6.04,.07-1.02c.12-1.79-.06-3.37-.21-4.65-.07-.6-.13-1.17-.15-1.6-.01-.39,.11-1.13,.22-1.84,.05-.33,.1-.66,.15-.99,.26-1.77,.31-3.43,.35-4.99,.01-.43,.03-.87,.05-1.31,.08-1.65,.17-3.52-.11-5.57-.04-.33-.09-.66-.14-1,2.98-.01,5.62-.15,7.81-.99,2.39-.37,4.7-1.45,6.6-3.12,2-1.79,3.42-4.2,4.01-6.76,.15-.65,.25-1.3,.3-1.94,.03-.27,.04-.5,.05-.72l.26-4.52c.07-1.26,.1-1.84,.13-2.25,.04-.73,.06-.98,.16-3.2l.04-.92c.09-2.13,.19-4.33,.19-6.54l.04-7.34,.02-4.18v-1.61Z"/></g><path class="cls-2" d="M67.51,55.05c-.52,2.62-.98,5.34-1.2,8.05-.23,2.79-.13,5.58-.08,8.37,.04,2.01,.8,3.91,.17,6.07-.25,.85-.3,1.77-.3,2.71,.01,.47,.02,.94,.04,1.41v.18s.01,.12,.01,.12v.1c.01,.07,.02,.13,.01,.19l-.06,.03s-.1,.04-.15,.06l-.07,.02s-.16,.08-.23,.11c-.34,.18-.68,.36-.98,.59-.9,.67-1.6,1.67-2.57,2.14-1.88,.92-3.9,1.55-5.84,2.34-.46,.19-.9,.44-1.35,.68-2.89,1.56-5.71,3.12-8.34,5.09-1.67,1.25-3.29,2.7-5.09,3.78-.58,.35-1.17,.67-1.77,.99l-.45,.23-.23,.12-.11,.06-.06,.03-.43,.18c-.2-.2-1.42-1-2.33-1.57-.95-.59-1.89-1.2-2.86-1.75-2.74-1.56-5.51-2.99-8.27-4.52-.74-.41-6.01-3.54-7.83-4.87-1.21-.88-2.54-1.6-3.83-2.35-.55-.32-1.12-.6-1.69-.86l-.43-.19-.22-.1c-.08-.04-.07-.02-.11-.03-.11-.02-.23-.05-.37-.09-.02-.07-.04-.14-.05-.22-.01-.09-.02-.12-.02-.26,0-.18,0-.36,.01-.54,.02-.36,.05-.71,.1-1.06,.09-.7,.2-1.4,.26-2.13,.12-1.62,.06-3.26,.08-4.89,.02-1.26,.15-2.52,.03-3.76-.14-1.44-.82-2.82-.78-4.26,.06-2.3,.59-4.52,.89-6.79,.12-.95,.29-1.92,.22-2.86-.11-1.34-.47-2.65-.64-3.99-.07-.46,.06-1.26,.13-1.22,.03-.05,.06-.09,.09-.11,.08,0,.15,0,.21,0,.08,0,.03,.07,.32-.06,.43-.17,.84-.36,1.24-.6,1.19-.72,2.25-1.63,3.43-2.36,1.21-.75,2.46-1.45,3.66-2.22,1.45-.93,2.9-2.02,4.45-2.87,1.56-.84,3.19-1.72,4.78-2.57,1.54-.83,3.22-1.48,4.72-2.36,.83-.49,1.64-1.02,2.43-1.57l1.17-.85,.58-.43,.29-.22,.11-.11c.08-.08,.17-.17,.27-.26l.46,.14c.25,.1,.63,.26,.94,.36,.22,.08,2.15,.06,2.02-.17-.31-.51-.5-1.17-.95-1.49-.3-.21-.6-.42-.9-.63-.52-.33-1.04-.67-1.57-1.01-.95,.49-1.91,1-2.88,1.5-.73,.39-1.46,.79-2.18,1.22-1.42,.86-2.77,1.8-3.96,2.84-3.29,2.91-7.53,4.56-11.44,6.45-1.59,.77-3.23,1.53-4.83,2.37-.8,.42-1.58,.86-2.35,1.33-.38,.23-.76,.48-1.13,.73l-.84,.55-.91,.62c.04,.46,.08,.92,.12,1.38l.05,.45c.02,.15,.03,.2,.05,.31l.1,.55c.06,.37,.12,.73,.17,1.09,.09,.73,.14,1.46,.05,2.22-.16,1.49-.58,2.96-.54,4.47,.07,2.42,.02,4.72,.45,7.11,.33,1.82-.05,3.38-.2,5.18-.18,2.23-.25,4.49-.14,6.73,.06,1.18,.21,2.36,.22,3.54v.4s-.02,.54-.02,.54l-.07,1.11,2.14,1.51c1.61,1.07,3.26,2.11,4.95,3.05,2.29,1.27,4.9,2.08,7.16,3.5,2.37,1.49,4.51,3.36,6.88,4.86,1.83,1.16,3.88,1.95,5.83,2.92l1.36,.69,.34,.17,.54,.29,1.08,.58c.86-.52,1.72-1.05,2.58-1.57,.67-.4,1.34-.8,2.01-1.19,1.35-.77,2.72-1.51,4.11-2.2,1.54-.76,3.23-1.21,4.77-1.96,1.15-.56,2.18-1.39,3.27-2.08,1.91-1.21,3.85-2.38,5.73-3.64,.98-.65,1.77-1.59,2.78-2.16,.74-.42,1.49-.82,2.24-1.21l1.14-.58,1.76-.92,.07-1.79,.08-1.12c.13-1.85-.32-3.67-.37-5.52-.04-1.39,.25-2.76,.45-4.12,.2-1.36,.24-2.72,.28-4.09,.04-1.87,.26-3.83,0-5.69-.21-1.53-.45-3.07-.62-4.61-.11-.97-.03-2.35-.74-3.1-.15,.43-.36,.86-.45,1.31Z"/><path class="cls-2" d="M82.21,50.85c.04-.07,.68-.21,1.26-.52,.59-.29,1.06-.74,1.18-.84,.66-.57,1.1-1.28,1.32-2,.1-.37,.18-.73,.17-1.09,.02-.18-.01-.36-.02-.53l-.06-.62c-.16-1.65-.3-3.25-.4-4.86-.22-3.22-.32-6.51-.29-10.41,.03-3.64,.11-12.61,.14-16.25-.04-.85-.33-1.42-.6-1.83-.28-.41-.57-.68-.88-.92-.31-.23-.66-.43-1.17-.56-.13-.02-.26-.07-.42-.08-.08,0-.15-.02-.23-.03-.1,0-.21,0-.32-.01-.45-.02-.95-.03-1.54-.06-.99-.03-2.35-.08-3.29,.04-2.95,.38-4.73,.7-7.95,.71-1.3,0-2.6-.09-3.89-.04-1.23,.05-2.41,.21-3.67,.17-1.5-.05-4.04-.19-5.53-.3-1.69-.14-3.37-.28-5.06-.42-.41-.03-.69-.05-.83-.05-.16-.01-.28,0-.39,.02-.22,.03-.45,.04-1.06,.25-.58,.21-1.07,.65-1.38,1.17-.32,.52-.43,1.11-.41,1.64,.02,.33,.12,1.42,.18,2.46,.06,1.04,.12,2.1,.16,2.74,.09,1.46-.02,3.25-.06,4.73-.11,3.14-.21,6.27-.32,9.41-.11,3.24-.1,6.73-.38,9.88-.1,1.17-.35,2.28-.38,3.44,0,.99,.59,1.91,1.35,2.42,.77,.53,1.63,.71,2.41,.75,.17,.02,.33,0,.5,0l.68-.04,1.36-.07c.91-.04,1.82-.07,2.73-.11,1.83-.06,3.66-.09,5.47-.07,4.72,.06,9.44,.29,14.13,.52,2.18,.11,5.77,.31,7.02,1.01,.33,.18,.57,.4,.42,.61-.71,.97-6.68,.74-8.7,.75l-13.83,.04-7.11-.07-1.78-.02h-.46s-.57-.04-.57-.04c-.38-.05-.75-.12-1.11-.23-1.46-.44-2.71-1.45-3.47-2.76-.48-.81-.77-1.74-.86-2.68l-.16-2.26c-.11-1.46-.23-2.92-.26-4.4-.08-3.04,.01-6.11,.03-9.17,.03-3.83,.04-7.67,.11-11.5,.02-1.14,.26-2.23,.3-3.38l.03-1.22c0-.18,.02-.46,.03-.72,.02-.26,.07-.52,.12-.77,.24-1.02,.72-1.99,1.43-2.77,.7-.79,1.61-1.38,2.62-1.72,.51-.15,1.03-.28,1.57-.29,.29-.02,.45-.02,.67-.03l.62-.02c3.3-.09,6.59-.22,9.8-.25l7.01-.06c.97,0,1.96-.04,2.92,.01,1.63,.08,3.25,.33,4.85,.31,1.23-.01,2.46-.08,3.69-.15l1.84-.11,.46-.02h.23s.31-.01,.31-.01c.42,0,.84,.05,1.26,.14,1.34,.28,2.57,1.07,3.46,2.12,.87,1.07,1.42,2.43,1.48,3.82,.02,.32,.02,.49,.02,.74,0,.24,0,.5,0,.77,0,.54,0,1.14,0,1.78,0,1.27-.01,2.7-.02,4.12-.02,2.85-.03,5.7-.04,7.33,0,2.39-.12,4.79-.22,7.17-.15,3.43-.1,1.96-.28,5.37l-.16,2.86-.08,1.43c-.02,.25-.02,.45-.05,.74-.02,.29-.06,.57-.13,.85-.26,1.12-.87,2.12-1.7,2.86-.83,.73-1.87,1.2-2.94,1.32-.36,.06-.94-.11-.89-.17Z"/><g><path class="cls-2" d="M22.72,61.63l6.11,9.24v-9.32c0-.61,.13-1.06,.39-1.36,.26-.3,.61-.45,1.05-.45s.82,.15,1.08,.45c.26,.3,.4,.76,.4,1.36v12.33c0,1.38-.57,2.06-1.71,2.06-.29,0-.54-.04-.77-.12-.23-.08-.44-.21-.64-.39s-.38-.39-.56-.63c-.17-.24-.34-.48-.51-.73l-5.96-9.13v9.18c0,.6-.14,1.05-.42,1.36s-.63,.46-1.07,.46-.81-.16-1.08-.46c-.27-.31-.41-.76-.41-1.35v-12.09c0-.51,.06-.92,.17-1.21,.14-.32,.36-.58,.67-.79,.31-.2,.65-.3,1.02-.3,.29,0,.53,.05,.73,.14,.2,.09,.38,.22,.53,.37,.15,.16,.31,.36,.47,.61,.16,.25,.33,.51,.5,.78Z"/><path class="cls-2" d="M44.59,62.44h-6.25v4.01h5.23c.48,0,.85,.11,1.09,.33,.24,.22,.36,.51,.36,.87s-.12,.65-.36,.87-.6,.32-1.08,.32h-5.23v5.16c0,.66-.15,1.14-.44,1.46-.3,.32-.68,.48-1.14,.48s-.85-.16-1.15-.48c-.3-.32-.44-.81-.44-1.45v-12.06c0-.46,.07-.83,.2-1.12,.14-.29,.35-.5,.64-.63,.29-.13,.66-.2,1.11-.2h7.48c.51,0,.88,.11,1.13,.34,.25,.22,.37,.52,.37,.88s-.12,.67-.37,.89c-.25,.22-.62,.34-1.13,.34Z"/><path class="cls-2" d="M58.63,62.61h-3.46v11.39c0,.66-.15,1.14-.44,1.46-.29,.32-.67,.48-1.13,.48s-.85-.16-1.15-.48c-.3-.32-.44-.81-.44-1.45v-11.39h-3.46c-.54,0-.94-.12-1.21-.36-.26-.24-.4-.55-.4-.95s.14-.73,.41-.96c.27-.24,.67-.35,1.19-.35h10.09c.55,0,.96,.12,1.22,.36,.27,.24,.4,.56,.4,.95s-.14,.71-.41,.95c-.27,.24-.68,.36-1.22,.36Z"/></g><path class="cls-2" d="M51.15,44.86c-.08-.11,.06-.9,.1-1,.88-2.07,1.58-3.53,3.2-5.1,.76-.73,2.58-2.59,3.38-3.28,1.03-.9,1-.69,2.05-1.57,.22-.18,.53-.43,.63-.71,.31-.88,.44-1.47,1.07-2.14,.26-.27,.59-.47,.81-.78,.21-.29,.33-.64,.61-.88,.34-.28,.95-.71,1.32-.94,.43-.26,.88-.5,1.31-.76,.42-.25,.26-.21,.68-.45,.4-.23,.6-.65,.72-1.09,.1-.36,.6-1.06,.8-1.38,.22-.37,.67-.66,.99-.94,.34-.3,.69-.59,1.05-.87l.54-.44,.83-.74c.51-.47,1.03-.95,1.55-1.44,.5,.68,.99,1.37,1.35,2.02,.13,.23,.22,.47,.3,.69,.08,.22,.11,.36,.2,.52,.32,.54,1.3,.51,1.79,.9,.82,.66,1.63,1.38,2.26,2.2,.83,1.08,1.53,2.27,2.21,3.45,.32,.55,.83,1.47,.52,2.2-.08,.19-.2,.39-.39,.49-.87,.47-1.8-1-2.18-1.44-.87-1-1.74-2-2.59-3.03-.87-1.06-1.64-2.19-2.56-3.2-.14-.16-.3-.3-.47-.43l-.26-.2-.07-.05s-.02,0-.03,0h-.05c-.12,.03-.18,.14-.2,.19,0,.02,0,.03,0,.04,0,.02,0-.07-.07-.03-.79,.78-1.56,1.56-2.38,2.31-.24,.22-.63,.28-.89,.5-1.45,1.19-2.47,2.91-3.7,4.28l-1.36,1.49c-.19,.21-.37,.43-.59,.6-.39,.28-.89,.44-1.2,.79-.47,.53-.8,1.2-1.23,1.77-.35,.46-.76,.86-1.14,1.3-.61,.72-2.31,2.34-2.96,3.01-.48,.5-1.04,.91-1.59,1.33-.79,.61-.46,.34-1.28,.92-.91,.65-1.84,1.27-2.77,1.89-.08,.05-.3,.04-.34-.01Z"/><path class="cls-2" d="M60.16,18.65c-.16-.31-.36-.59-.56-.86-.28-.37-.57-.78-1.01-1-.45-.23-.95-.24-1.43-.24-.58,0-1.18,.1-1.69,.4-.72,.41-1.22,1.17-1.39,1.96-.17,.82,.07,1.61,.42,2.31,.18,.36,.4,.76,.76,.99,.27,.17,.61,.21,.92,.15,.43-.09,.78,.19,1.23,.21,.65,.04,1.4-.17,1.89-.69,.24-.22,.33-.55,.56-.79,.15-.16,.15-.46,.35-.62,.18-.14,.14-.36,.43-.51,.18-.09,.49-.16,.8-.25,.04-.01,.08-.02,.13-.02,.1,0,.17,.04,.21,.08,.17,.16,.23,.35,.33,.55,.1,.21,.31,.45,.28,.68-.01,.12-.22,.21-.29,.31-.11,.14,.09,.57,0,.74-.17,.39-.53,.67-.82,.95-.3,.29-.48,.66-.76,1-.69,.82-1.67,1.46-2.81,1.78-1.13,.3-2.39,0-3.35-.64-.97-.64-1.65-1.57-2.12-2.52-.17-.33-.47-.62-.54-1-.09-.51,.06-1.03,.06-1.5,0-.64-.13-1.32,0-1.99,.08-.42,.31-.79,.46-1.19,.18-.51,.43-.98,.88-1.31,.69-.48,1.3-1.02,2.11-1.3,.62-.21,1.28-.2,1.91-.16,.9,.06,1.82,.27,2.55,.79,.43,.31,.67,.84,.9,1.27,.3,.56,.49,1.13,.55,1.7,.04,.46,.03,.89-.07,1.3-.03,.12-.05,.28-.18,.39-.19,.16-.34,.01-.4-.07-.08-.11-.09-.22-.14-.33-.06-.19-.11-.39-.2-.57Z"/><path class="cls-2" d="M23.87,45.71c.38-.17,.82-.17,1.2-.34,.43-.2,.89-.68,1.29-.92,.54-.33,.92-.58,1.41-.99,.4-.34,.95-.93,1.36-1.26,.56-.46,1.08-.37,1.61-.87,.34-.32,.87-.34,1.28-.52,.27-.12,.48-.36,.66-.62,.17-.25,.44-.37,.69-.5,.55-.28,1.19-.4,1.71-.73,.48-.31,.94-.65,1.48-.87,.2-.08,.45-.14,.68-.2,.17-.04,.36-.23,.63-.06,.04,.02,.39,.4,.39,.39-.06,.7-.2,1.02-.51,1.38-.78,.89-2.06,1.31-3.05,1.85-.47,.26-.71,.62-1.15,.91-.19,.13-.52,.28-.76,.35-.37,.1-.57,.49-.93,.61-.09,.03-.27-.08-.34-.03-.31,.21-.51,.71-.8,.94-.2,.16-.5,.06-.7,.23-.34,.28-.65,.59-1.01,.84-.33,.24-.72,.39-1.05,.62-.33,.23-1.17,.87-1.47,1.15-.42,.39-1.15,.32-1.6,.68-.46,.36-1.32,.9-1.85,1.14-.87,.38-.64,.39-1.47,.85-.3,.17-.62,.29-.92,.45-.3,.15-.42,.55-.71,.72-.53,.29-1.19,.42-1.76,.64-.67,.26-1.21,.88-1.92,1.07-.48,.13-1.16-.21-1.65-.11-.08,.02-.21-.07-.32-.12-.03-.09-.11-.23-.1-.25,.09-.15,.17-.3,.29-.39,.61-.47,1.22-.93,1.84-1.38,1.75-1.26,3.29-1.76,5.17-3.29,.5-.41,1.45-.7,2.03-.99,.14-.07,.22-.3,.36-.36Z"/><path class="cls-2" d="M47.75,85.97c.32-.12,.7-.08,1.02-.2,.36-.15,.73-.56,1.07-.75,.45-.26,.77-.46,1.17-.8,.33-.28,.77-.79,1.11-1.06,.46-.38,.92-.24,1.35-.67,.27-.27,.73-.23,1.08-.37,.23-.09,.39-.29,.54-.53,.14-.23,.36-.31,.57-.4,.46-.21,1.01-.26,1.44-.52,.4-.25,.78-.53,1.24-.68,.17-.06,.38-.09,.58-.12,.14-.02,.3-.18,.54,0,.03,.03,.36,.42,.36,.41-.01,.66-.12,.95-.37,1.26-.63,.77-1.72,1.04-2.55,1.45-.39,.2-.58,.52-.95,.75-.16,.1-.43,.22-.64,.25-.32,.06-.47,.41-.78,.48-.08,.02-.24-.1-.3-.06-.26,.16-.4,.62-.64,.81-.17,.13-.43,0-.6,.15-.28,.23-.53,.5-.83,.7-.28,.19-.6,.3-.88,.49-.27,.18-.97,.71-1.21,.95-.34,.32-.98,.19-1.35,.48-.38,.3-1.09,.73-1.54,.9-.73,.28-.54,.3-1.23,.66-.25,.13-.52,.21-.77,.33-.25,.12-.33,.48-.58,.61-.44,.23-1.01,.28-1.49,.43-.57,.18-1,.71-1.61,.83-.4,.07-1.01-.32-1.43-.27-.07,0-.19-.09-.29-.14-.03-.09-.11-.23-.1-.25,.07-.13,.13-.27,.23-.35,.5-.39,1.01-.76,1.52-1.13,1.45-1.03,2.75-1.35,4.3-2.6,.41-.34,1.22-.52,1.7-.73,.12-.05,.17-.26,.29-.31Z"/></svg>