<?xml version="1.0" encoding="UTF-8"?><svg id="Layer_1" xmlns="http://www.w3.org/2000/svg" xmlns:xlink="http://www.w3.org/1999/xlink" viewBox="0 0 106.06 110"><defs><style>.cls-1{fill:url(#linear-gradient);}.cls-2{fill:#fff;}</style><linearGradient id="linear-gradient" x1="12.94" y1="26.09" x2="92.44" y2="105.58" gradientUnits="userSpaceOnUse"><stop offset="0" stop-color="#137272"/><stop offset="1" stop-color="#1e3287"/></linearGradient></defs><path class="cls-2" d="M75.92,75.37c.06,.3,.1,.59,.1,.89,0,.41-.11,.82-.11,1.23,0,.42,.11,.84,.13,1.26,.02,.51-.03,1.03-.04,1.54-.01,.71,.05,1.45,.08,2.17,.03,.73,.16,1.45,.1,2.18-.03,.37-.13,.76-.11,1.13,.01,.28,.14,.56,.3,.83,.23,.4-.02,.81-.09,1.21-.11,.62-.26,1.25-.23,1.87-.02,.28,.1,.57,0,.86-.07,.18,.05,.43-.11,.61-.14,.15-.07,.33-.36,.46-.18,.08-.5,.14-.81,.19-.04,0-.08,.01-.13,.02-.1,0-.18-.02-.22-.05-.19-.09-.24-.2-.37-.29-.14-.11-.37-.21-.41-.32-.02-.06,.16-.13,.21-.19,.06-.09-.28-.26-.28-.35,0-.21,.15-.42,.2-.63,.06-.21-.08-.42-.17-.63-.21-.52-.41-1.05-.6-1.57-.36-1.04,.32-2.09,.49-3.13,.03-.18-.13-.37-.06-.56,.09-.24,.34-.48,.39-.73,.06-.34-.14-.68-.21-1.02-.05-.21,.02-.42-.05-.63-.09-.27-.2-.51-.11-.78,.14-.41-.01-.8,0-1.21,0-.31,.12-.63,.15-.94,.05-.45,.01-.91,.12-1.36,.06-.26,.34-.53,.49-.79,.19-.34,.34-.68,.51-1.02,.14-.27,.27-.54,.42-.81,.05-.08,.07-.19,.21-.27,.2-.12,.35-.01,.41,.06,.07,.09,.09,.19,.11,.28,.04,.17,.03,.34,.07,.5Z"/><path class="cls-2" d="M32.39,75.37c.06,.3,.1,.59,.1,.89,0,.41-.11,.82-.11,1.23,0,.42,.11,.84,.13,1.26,.02,.51-.03,1.03-.04,1.54-.01,.71,.05,1.45,.08,2.17,.03,.73,.16,1.45,.1,2.18-.03,.37-.13,.76-.11,1.13,.01,.28,.14,.56,.3,.83,.23,.4-.02,.81-.09,1.21-.11,.62-.26,1.25-.23,1.87-.02,.28,.1,.57,0,.86-.07,.18,.05,.43-.11,.61-.14,.15-.07,.33-.36,.46-.18,.08-.5,.14-.81,.19-.04,0-.08,.01-.13,.02-.1,0-.18-.02-.22-.05-.19-.09-.24-.2-.37-.29-.14-.11-.37-.21-.41-.32-.02-.06,.16-.13,.21-.19,.06-.09-.28-.26-.28-.35,0-.21,.15-.42,.2-.63,.06-.21-.08-.42-.17-.63-.21-.52-.41-1.05-.6-1.57-.36-1.04,.32-2.09,.49-3.13,.03-.18-.13-.37-.06-.56,.09-.24,.34-.48,.39-.73,.06-.34-.14-.68-.21-1.02-.05-.21,.02-.42-.05-.63-.09-.27-.2-.51-.11-.78,.14-.41-.01-.8,0-1.21,0-.31,.12-.63,.15-.94,.05-.45,.01-.91,.12-1.36,.06-.26,.34-.53,.49-.79,.19-.34,.34-.68,.51-1.02,.14-.27,.27-.54,.42-.81,.05-.08,.07-.19,.21-.27,.2-.12,.35-.01,.41,.06,.07,.09,.09,.19,.11,.28,.04,.17,.03,.34,.07,.5Z"/><path d="M74.63,92.18c-.14,0-.27-.03-.38-.09-.18-.09-.28-.19-.35-.26-.03-.02-.05-.05-.08-.08-.03-.02-.08-.05-.12-.08-.17-.1-.35-.22-.42-.43-.04-.12-.02-.24,.04-.34-.07-.08-.13-.18-.13-.32,0-.21,.08-.4,.15-.55,.03-.06,.06-.12,.07-.18,0-.03-.05-.16-.08-.22-.02-.05-.05-.11-.07-.16-.21-.53-.42-1.05-.61-1.58-.29-.83-.04-1.6,.21-2.35,.11-.34,.22-.66,.27-.97,0,0-.02-.05-.03-.08-.04-.13-.1-.32-.02-.54,.06-.15,.14-.29,.22-.4,.06-.09,.14-.2,.15-.26,.02-.13-.04-.31-.1-.49-.04-.12-.08-.25-.11-.37-.03-.14-.03-.28-.02-.38,0-.09,0-.16-.01-.21l-.03-.1c-.09-.25-.2-.56-.08-.92,.06-.18,.04-.38,0-.61-.02-.16-.04-.32-.04-.48,0-.22,.05-.42,.09-.62,.03-.12,.05-.24,.06-.36,.02-.16,.02-.32,.03-.48,.01-.3,.02-.61,.1-.93,.06-.24,.21-.45,.35-.64,.06-.08,.13-.17,.18-.25,.12-.22,.23-.44,.34-.66l.26-.52c.11-.21,.22-.43,.34-.64,.06-.12,.14-.29,.35-.41,.36-.21,.72-.07,.9,.15,.12,.15,.16,.3,.18,.39,.04,.14,.05,.25,.06,.36,0,.06,0,.12,.02,.19h0c.07,.35,.11,.67,.11,.97,0,.22-.03,.43-.06,.65-.03,.19-.05,.38-.05,.57,0,.2,.03,.4,.06,.61,.03,.21,.06,.43,.07,.64,0,.33,0,.66-.02,.98,0,.19-.02,.38-.02,.57,0,.47,.02,.97,.05,1.45,.01,.23,.02,.46,.03,.69,0,.25,.03,.49,.05,.74,.04,.48,.09,.98,.04,1.49-.01,.14-.03,.29-.06,.43-.03,.23-.07,.44-.06,.64,.01,.22,.14,.47,.25,.66,.25,.44,.13,.85,.03,1.19-.03,.09-.06,.19-.07,.28l-.06,.31c-.1,.51-.19,1-.17,1.47,0,.12,0,.2,.02,.29,.02,.2,.05,.45-.04,.72,0,0,0,.06,0,.09,0,.16,.01,.43-.2,.65-.07,.17-.15,.39-.47,.54-.21,.1-.52,.16-.91,.23-.06,.01-.12,.02-.2,.02h-.02Zm-.43-1.09s.05,.04,.07,.05c.06,.05,.11,.09,.15,.14,.06,.06,.09,.09,.16,.12h.12c.23-.04,.58-.1,.71-.17l.06-.08c.03-.08,.07-.19,.18-.3,0,0-.01-.05-.01-.09,0-.11,0-.24,.04-.38,.03-.09,.02-.22,0-.36-.02-.13-.03-.26-.02-.38-.02-.52,.08-1.07,.18-1.61l.06-.31c.02-.12,.06-.24,.09-.36,.08-.28,.12-.45,.04-.59-.15-.27-.33-.62-.35-1.01-.01-.28,.03-.54,.06-.8,.02-.13,.04-.26,.05-.39,.04-.44,0-.89-.04-1.35-.02-.26-.05-.52-.06-.78,0-.23-.02-.45-.03-.68-.03-.49-.06-1-.05-1.51,0-.2,.01-.4,.02-.59,.01-.31,.03-.62,.02-.93,0-.18-.03-.37-.06-.55-.03-.24-.07-.47-.07-.71,0-.23,.03-.45,.06-.68,.02-.18,.05-.37,.05-.55,0-.25-.03-.51-.09-.8-.02-.09-.03-.19-.04-.28,0-.07,0-.14-.03-.2,0,0,0,0,0,0l-.02,.03c-.11,.2-.22,.41-.32,.61l-.26,.52c-.11,.23-.23,.47-.36,.7-.06,.11-.15,.23-.23,.34-.09,.12-.2,.26-.22,.35-.06,.25-.07,.51-.08,.78,0,.18-.01,.35-.03,.53-.02,.15-.05,.29-.08,.44-.04,.17-.07,.33-.07,.47,0,.13,.02,.25,.03,.37,.04,.28,.08,.61-.04,.95-.03,.1,0,.22,.07,.43l.04,.11c.06,.18,.06,.35,.05,.48,0,.08,0,.14,0,.19,.02,.09,.05,.19,.09,.29,.09,.26,.19,.56,.13,.88-.04,.22-.16,.39-.26,.55-.06,.09-.12,.17-.14,.24,0-.02,.02,.03,.03,.06,.03,.11,.07,.25,.05,.43-.06,.37-.18,.73-.3,1.08-.22,.66-.42,1.28-.22,1.85,.19,.52,.39,1.04,.6,1.56l.06,.12c.09,.19,.21,.45,.12,.75-.03,.1-.07,.19-.11,.29-.02,.04-.03,.08-.05,.12,.24,.21,.31,.42,.22,.62Zm-.24-.16h0Z"/><path d="M31.1,92.18c-.14,0-.27-.03-.38-.09-.18-.09-.28-.19-.35-.26-.03-.03-.05-.05-.08-.08-.04-.03-.08-.05-.12-.08-.17-.1-.35-.22-.42-.43-.04-.12-.02-.24,.04-.34-.07-.08-.13-.18-.13-.31,0-.21,.08-.4,.15-.55,.03-.06,.06-.12,.07-.18,0-.03-.05-.16-.08-.22-.02-.05-.05-.11-.07-.16-.21-.53-.42-1.05-.61-1.58-.29-.83-.04-1.6,.21-2.35,.11-.34,.22-.66,.27-.97,0,0-.02-.05-.03-.08-.04-.13-.1-.32-.02-.54,.06-.15,.14-.29,.22-.4,.06-.09,.14-.2,.15-.26,.02-.13-.04-.31-.1-.49-.04-.12-.08-.25-.11-.37-.03-.14-.03-.28-.02-.38,0-.09,0-.16-.01-.21l-.03-.1c-.09-.25-.2-.56-.08-.92,.06-.18,.04-.38,0-.61-.02-.16-.04-.32-.04-.48,0-.22,.05-.42,.09-.62,.03-.12,.05-.24,.06-.36,.02-.16,.02-.32,.03-.48,.01-.3,.02-.61,.1-.93,.06-.24,.21-.45,.35-.64,.06-.08,.13-.17,.18-.25,.12-.22,.23-.44,.34-.66l.26-.52c.11-.21,.22-.43,.34-.64,.06-.12,.14-.29,.35-.41,.36-.21,.72-.07,.9,.15,.12,.15,.16,.3,.18,.39,.04,.14,.05,.25,.06,.37,0,.06,0,.12,.02,.18,.07,.34,.11,.66,.11,.97,0,.22-.03,.44-.06,.65-.02,.19-.05,.38-.05,.57,0,.2,.03,.4,.06,.6,.03,.21,.06,.43,.07,.64,0,.33,0,.66-.02,.98,0,.19-.02,.38-.02,.57,0,.47,.02,.97,.05,1.45,.01,.23,.02,.46,.03,.69,0,.25,.03,.49,.05,.74,.04,.48,.09,.98,.04,1.49-.01,.14-.03,.29-.06,.43-.03,.23-.07,.44-.06,.64,.01,.22,.14,.47,.25,.66,.25,.44,.13,.85,.03,1.19-.03,.09-.06,.19-.07,.28l-.06,.31c-.1,.51-.19,1-.17,1.47,0,.12,0,.2,.02,.29,.02,.2,.05,.45-.04,.72,0,0,0,.06,0,.09,0,.16,.01,.43-.2,.65-.07,.17-.15,.39-.47,.54-.21,.1-.52,.16-.9,.23-.06,.01-.12,.02-.2,.02h-.02Zm-.43-1.09s.05,.04,.07,.05c.06,.04,.11,.09,.15,.14,.06,.06,.09,.09,.16,.12h.12c.23-.04,.58-.1,.71-.17l.07-.08c.03-.08,.07-.19,.18-.3-.01,0-.01-.05-.01-.09,0-.11,0-.24,.04-.38,.03-.09,.02-.22,0-.36-.02-.13-.03-.26-.02-.38-.02-.52,.08-1.07,.18-1.61l.06-.31c.02-.12,.06-.24,.09-.36,.08-.28,.12-.45,.04-.59-.15-.27-.33-.62-.35-1.01-.01-.28,.03-.54,.06-.8,.02-.13,.04-.26,.05-.39,.04-.44,0-.89-.04-1.35-.02-.26-.05-.52-.06-.78,0-.23-.02-.45-.03-.68-.03-.49-.06-1-.05-1.51,0-.2,.01-.4,.02-.59,.01-.31,.03-.62,.02-.93,0-.18-.03-.37-.06-.56-.03-.24-.07-.47-.07-.71,0-.23,.03-.45,.06-.68,.02-.18,.05-.37,.05-.55,0-.25-.03-.51-.09-.8h0c-.02-.09-.03-.19-.04-.28,0-.07,0-.14-.03-.21,0,0,0,0,0,0l-.02,.03c-.11,.2-.22,.41-.32,.61l-.26,.52c-.11,.23-.23,.47-.36,.7-.06,.11-.15,.23-.23,.34-.09,.12-.2,.26-.22,.35-.06,.25-.07,.51-.08,.78,0,.18-.01,.35-.03,.53-.02,.15-.05,.29-.08,.44-.04,.17-.07,.33-.07,.47,0,.13,.02,.25,.03,.37,.04,.28,.08,.61-.04,.95-.03,.1,0,.22,.07,.43l.04,.11c.06,.18,.06,.35,.05,.48,0,.08,0,.14,0,.19,.02,.09,.05,.19,.09,.29,.09,.26,.19,.56,.13,.88-.04,.22-.16,.39-.26,.55-.06,.09-.12,.17-.14,.24,.01-.02,.02,.03,.03,.06,.03,.11,.07,.25,.05,.43-.06,.37-.18,.73-.3,1.08-.22,.66-.42,1.28-.22,1.85,.19,.52,.39,1.04,.6,1.56l.06,.12c.09,.19,.21,.45,.12,.75-.03,.1-.07,.19-.11,.29-.02,.04-.04,.08-.05,.12,.24,.21,.31,.42,.22,.62Z"/><path class="cls-1" d="M105.9,61.05v-5.03s-16.07-9.34-16.07-9.34l-6.66-3.75v-.02c.22-1.3,.21-2.55,.21-3.46,0-.25,0-.48,0-.68,.09-1.32,.06-2.55,.04-3.65,0-.49-.02-.98-.02-1.46v-.14c0-1.37,0-2.87,.06-4.72l.29-10.65-5.46-3.3-2.14-1.38c-1-.63-2.34-1.44-3.9-2.13-1.04-.46-2.25-1.01-3.36-1.64-1-.57-2.07-1.22-3.15-1.89-.64-.39-1.28-.79-1.92-1.17-1.17-.7-2.34-1.37-3.53-2.05L52.11,0l-8.25,4.89c-1.07,.63-3.3,1.94-3.3,1.94-2.23,1.32-4.53,2.68-6.74,3.95l-7.39,4.22-5.8,3.4,.71,8.93c.08,.92,.16,1.83,.22,2.75,.07,1.06,.11,2.12,.15,3.17,.04,1.15,.09,2.3,.16,3.45,.1,1.59,.23,3.26,.42,5.1,.04,.35,.06,.71,.09,1.06,0,0,.02,.24,.02,.32l-4.22,2.38c-2.13,1.23-4.34,2.54-6.71,3.99l-3.75,2.24-.35,.21c-.67,.41-1.44,.88-2.21,1.43-3.18,2.26-4.07,4.87-4.12,6.98-.1,.29-.19,.6-.27,.93-.37,1.5-.43,2.91-.48,4.06-.02,.34-.02,.67-.06,.98-.15,1.38-.15,2.85-.14,4.14,0,.59,0,1.17-.01,1.67-.08,1.78-.05,3.56-.03,5.15,.01,.87,.02,1.73,.02,2.58l-.06,11.96,12.93,7.78c.75,.45,1.5,.92,2.3,1.42,2.23,1.39,4.75,2.96,7.36,4.24l2.06,1.03,6.82,3.65,6.65-3.97c1.68-.98,3.49-1.98,5.23-2.95l.1-.06c1.04-.58,2.07-1.15,3.1-1.73,1.92-1.08,3.81-2.18,5.71-3.29l.73-.43,3.48,2.09c.73,.44,1.46,.9,2.2,1.35l.1,.06c2.23,1.39,4.75,2.96,7.35,4.24l2.06,1.03,6.82,3.65,6.65-3.97c1.68-.98,3.49-1.99,5.25-2.96l-3.75-6.76,3.84,6.71c1.04-.58,2.07-1.15,3.09-1.72,1.92-1.08,3.81-2.18,5.7-3.28l10.28-6.04-.15-30.91Z"/><path class="cls-2" d="M59.16,56.51c2.19-1.34,4.39-2.65,6.6-3.93l9.01-5.08,1.47,.85,9.52,5.35,12.03,6.99v.35c0,3.31,.02,6.65,.03,10,.02,3.14,.04,6.29,.06,9.42,.02,2.32,.03,4.62,.05,6.89-2.09,1.23-4.17,2.45-6.25,3.68-1.85,1.08-3.7,2.15-5.58,3.21-2.82,1.59-5.76,3.17-8.54,4.8-.92,.55-1.84,1.1-2.76,1.65l-1.79-.98-1.08-.55-2.16-1.08c-3.1-1.53-6.08-3.53-9.07-5.34-1.38-.83-2.75-1.67-4.14-2.51l-2.07-1.25-2.79-1.65c.01-1.36,.02-2.72,.04-4.08,0-1.09,0-2.17,0-3.26,.02-2.42-.1-4.97,0-7.43,.07-1.55-.05-3.75,.11-5.27,.14-1.27,.07-2.83,.36-3.99,.18-.72,.5-1.22,.81-1.69,.04-.06,.08-.13,.13-.13,.1-.02,.18,.2,.22,.4,.19,.81,.24,1.7,.37,2.55,.14,.91,.37,1.81,.41,2.78,.02,.54-.16,1.14-.21,1.68-.06,.78,.28,2.25,.28,3.04,0,1.82-.15,3.62-.2,5.43-.06,1.86,.08,3.63,.17,5.47l.08,1.85,.04,.85,.04,.28,.18,.07c.07,.03,.06,.01,.3,.14l1.1,.57,2.21,1.15,4.41,2.3c2.23,1.17,4.42,2.41,6.59,3.69l3.23,1.95,1.61,.99,.73,.46,.08,.08,.08-.02h.02s.01-.01,.01-.01l.08-.04,.33-.18,1.33-.7,2.66-1.41c1.77-.94,3.54-1.89,5.3-2.86,1.4-.77,2.73-1.72,4.14-2.46,1.88-.98,3.81-1.8,5.68-2.83l.77-.43,.42-.25c-.07-2.15-.15-4.33-.22-6.47-.05-1.83,.02-3.67-.05-5.5-.09-2.31-.2-4.41-.11-6.74,.04-.99,.05-1.97,.06-2.94v-1.46s-.01-.52-.01-.52v-.24s-.42-.22-.42-.22l-1.01-.57c-.67-.38-1.35-.77-2.04-1.16-2.36-1.37-4.66-2.83-7.01-4.22l-5.08-2.98-2.54-1.49-1.26-.75-.63-.38-.34-.22-.17-.11c-1.77,.84-3.55,1.68-5.32,2.53l-7.89,3.96-6.3,3.16c-.65,.32-1.46,.76-2.11,.98-.98,.33-.25-.26,.24-.61,.64-.45,1.35-.88,2.03-1.3l3.74-2.24Z"/><path class="cls-2" d="M75.92,75.37c.06,.3,.1,.59,.1,.89,0,.41-.11,.82-.11,1.23,0,.42,.11,.84,.13,1.26,.02,.51-.03,1.03-.04,1.54-.01,.71,.05,1.45,.08,2.17,.03,.73,.16,1.45,.1,2.18-.03,.37-.13,.76-.11,1.13,.01,.28,.14,.56,.3,.83,.23,.4-.02,.81-.09,1.21-.11,.62-.26,1.25-.23,1.87-.02,.28,.1,.57,0,.86-.07,.18,.05,.43-.11,.61-.14,.15-.07,.33-.36,.46-.18,.08-.5,.14-.81,.19-.04,0-.08,.01-.13,.02-.1,0-.18-.02-.22-.05-.19-.09-.24-.2-.37-.29-.14-.11-.37-.21-.41-.32-.02-.06,.16-.13,.21-.19,.06-.09-.28-.26-.28-.35,0-.21,.15-.42,.2-.63,.06-.21-.08-.42-.17-.63-.21-.52-.41-1.05-.6-1.57-.36-1.04,.32-2.09,.49-3.13,.03-.18-.13-.37-.06-.56,.09-.24,.34-.48,.39-.73,.06-.34-.14-.68-.21-1.02-.05-.21,.02-.42-.05-.63-.09-.27-.2-.51-.11-.78,.14-.41-.01-.8,0-1.21,0-.31,.12-.63,.15-.94,.05-.45,.01-.91,.12-1.36,.06-.26,.34-.53,.49-.79,.19-.34,.34-.68,.51-1.02,.14-.27,.27-.54,.42-.81,.05-.08,.07-.19,.21-.27,.2-.12,.35-.01,.41,.06,.07,.09,.09,.19,.11,.28,.04,.17,.03,.34,.07,.5Z"/><path class="cls-2" d="M89.33,67.59c-.5,.35-1.02,.68-1.55,.98-.74,.41-1.53,.73-2.27,1.14-.75,.42-1.46,.94-2.21,1.38-.92,.53-1.87,1.01-2.8,1.52-1.3,.71-2.59,1.5-3.88,2.25-.6,.35-1.2,.7-1.8,1.05-.72-.38-1.43-.76-2.14-1.14-.48-.25-.95-.52-1.41-.8-.66-.41-1.3-.89-1.98-1.25-.51-.27-1.07-.44-1.65-.58-.83-.2-1.45-.84-2.14-1.31-1.06-.73-2.12-1.49-3.25-2.1-.49-.3-1.08-.5-1.54-.88-.29-.24-.8-.39-1.04-.72-.19-.27-.55-.39-.65-.78-.06-.24,0-.58,.05-.9,0-.04,.02-.09,.04-.13,.05-.09,.13-.13,.19-.15,.26-.07,.47-.01,.71-.03,.26-.01,.56-.11,.78-.03,.12,.05,.16,.28,.25,.38,.13,.14,.6,.02,.77,.11,.37,.21,.67,.54,1.01,.8,.17,.13,.37,.21,.57,.28,1.27,.44,2.54,.87,3.8,1.3,2.06,.74,3.6,2.4,5.39,3.61,.32,.21,.73,.27,1.03,.51,.2,.16,.37,.36,.55,.55,.09,.09,.18,.19,.27,.28,.04,.06,.08,.11,.14,.16,.09,.07,.19,.12,.28,.15,.27-.2,.27-.33,.77-.67,.36-.25,.78-.41,1.12-.68,.44-.35,.82-.69,1.35-.88,.81-.29,1.44-.82,2.18-1.23,.57-.31,1.19-.53,1.78-.82,.84-.41,1.64-.9,2.51-1.27,.51-.21,1.12-.23,1.66-.37,.7-.18,1.39-.38,2.08-.57,.56-.15,1.11-.31,1.67-.45,.17-.04,.38-.13,.58-.09,.31,.06,.19,.3,.09,.42-.13,.16-.29,.26-.45,.38-.28,.21-.59,.37-.88,.57Z"/><path class="cls-2" d="M15.64,56.51c2.19-1.34,4.39-2.65,6.6-3.93l9.01-5.08,1.47,.85,9.52,5.35,12.03,6.99v.35c0,3.31,.02,6.65,.03,10,.02,3.14,.04,6.29,.06,9.42,.02,2.32,.03,4.62,.05,6.89-2.09,1.23-4.17,2.45-6.25,3.68-1.85,1.08-3.7,2.15-5.58,3.21-2.82,1.59-5.76,3.17-8.54,4.8-.92,.55-1.84,1.1-2.76,1.65l-1.79-.98-1.08-.55-2.16-1.08c-3.1-1.53-6.08-3.53-9.07-5.34-1.38-.83-2.75-1.67-4.14-2.51l-2.07-1.25-2.79-1.65c.01-1.36,.02-2.72,.04-4.08,0-1.09,0-2.17,0-3.26,.02-2.42-.1-4.97,0-7.43,.07-1.55-.05-3.75,.11-5.27,.14-1.27,.07-2.83,.36-3.99,.18-.72,.5-1.22,.81-1.69,.04-.06,.08-.13,.13-.13,.1-.02,.18,.2,.22,.4,.19,.81,.24,1.7,.37,2.55,.14,.91,.37,1.81,.41,2.78,.02,.54-.16,1.14-.21,1.68-.06,.78,.28,2.25,.28,3.04,0,1.82-.15,3.62-.2,5.43-.06,1.86,.08,3.63,.17,5.47l.08,1.85,.04,.85,.04,.28,.18,.07c.07,.03,.06,.01,.3,.14l1.1,.57,2.21,1.15,4.41,2.3c2.23,1.17,4.42,2.41,6.59,3.69l3.23,1.95,1.61,.99,.73,.46,.08,.08,.08-.02h.02s.01-.01,.01-.01l.08-.04,.33-.18,1.33-.7,2.66-1.41c1.77-.94,3.54-1.89,5.3-2.86,1.4-.77,2.73-1.72,4.14-2.46,1.88-.98,3.81-1.8,5.68-2.83l.77-.43,.42-.25c-.07-2.15-.15-4.33-.22-6.47-.05-1.83,.02-3.67-.05-5.5-.09-2.31-.2-4.41-.11-6.74,.04-.99,.05-1.97,.06-2.94v-1.46s-.01-.52-.01-.52v-.24s-.42-.22-.42-.22l-1.01-.57c-.67-.38-1.35-.77-2.04-1.16-2.36-1.37-4.66-2.83-7.01-4.22l-5.08-2.98-2.54-1.49-1.26-.75-.63-.38-.34-.22-.17-.11c-1.77,.84-3.55,1.68-5.32,2.53l-7.89,3.96-6.3,3.16c-.65,.32-1.46,.76-2.11,.98-.98,.33-.25-.26,.24-.61,.64-.45,1.35-.88,2.03-1.3l3.74-2.24Z"/><path class="cls-2" d="M32.39,75.37c.06,.3,.1,.59,.1,.89,0,.41-.11,.82-.11,1.23,0,.42,.11,.84,.13,1.26,.02,.51-.03,1.03-.04,1.54-.01,.71,.05,1.45,.08,2.17,.03,.73,.16,1.45,.1,2.18-.03,.37-.13,.76-.11,1.13,.01,.28,.14,.56,.3,.83,.23,.4-.02,.81-.09,1.21-.11,.62-.26,1.25-.23,1.87-.02,.28,.1,.57,0,.86-.07,.18,.05,.43-.11,.61-.14,.15-.07,.33-.36,.46-.18,.08-.5,.14-.81,.19-.04,0-.08,.01-.13,.02-.1,0-.18-.02-.22-.05-.19-.09-.24-.2-.37-.29-.14-.11-.37-.21-.41-.32-.02-.06,.16-.13,.21-.19,.06-.09-.28-.26-.28-.35,0-.21,.15-.42,.2-.63,.06-.21-.08-.42-.17-.63-.21-.52-.41-1.05-.6-1.57-.36-1.04,.32-2.09,.49-3.13,.03-.18-.13-.37-.06-.56,.09-.24,.34-.48,.39-.73,.06-.34-.14-.68-.21-1.02-.05-.21,.02-.42-.05-.63-.09-.27-.2-.51-.11-.78,.14-.41-.01-.8,0-1.21,0-.31,.12-.63,.15-.94,.05-.45,.01-.91,.12-1.36,.06-.26,.34-.53,.49-.79,.19-.34,.34-.68,.51-1.02,.14-.27,.27-.54,.42-.81,.05-.08,.07-.19,.21-.27,.2-.12,.35-.01,.41,.06,.07,.09,.09,.19,.11,.28,.04,.17,.03,.34,.07,.5Z"/><path class="cls-2" d="M45.8,67.59c-.5,.35-1.02,.68-1.55,.98-.74,.41-1.53,.73-2.27,1.14-.75,.42-1.46,.94-2.21,1.38-.92,.53-1.87,1.01-2.8,1.52-1.3,.71-2.59,1.5-3.88,2.25-.6,.35-1.2,.7-1.8,1.05-.72-.38-1.43-.76-2.14-1.14-.48-.25-.95-.52-1.41-.8-.66-.41-1.3-.89-1.98-1.25-.51-.27-1.07-.44-1.65-.58-.83-.2-1.45-.84-2.14-1.31-1.06-.73-2.12-1.49-3.25-2.1-.49-.3-1.08-.5-1.54-.88-.29-.24-.8-.39-1.04-.72-.19-.27-.55-.39-.65-.78-.06-.24,0-.58,.05-.9,0-.04,.02-.09,.04-.13,.05-.09,.13-.13,.19-.15,.26-.07,.47-.01,.71-.03,.26-.01,.56-.11,.78-.03,.12,.05,.16,.28,.25,.38,.13,.14,.6,.02,.77,.11,.37,.21,.67,.54,1.01,.8,.17,.13,.37,.21,.57,.28,1.27,.44,2.54,.87,3.8,1.3,2.06,.74,3.6,2.4,5.39,3.61,.32,.21,.73,.27,1.03,.51,.2,.16,.37,.36,.55,.55,.09,.09,.18,.19,.27,.28,.04,.06,.08,.11,.14,.16,.09,.07,.19,.12,.28,.15,.27-.2,.27-.33,.77-.67,.36-.25,.78-.41,1.12-.68,.44-.35,.82-.69,1.35-.88,.81-.29,1.44-.82,2.18-1.23,.57-.31,1.19-.53,1.78-.82,.84-.41,1.64-.9,2.51-1.27,.51-.21,1.12-.23,1.66-.37,.7-.18,1.39-.38,2.08-.57,.56-.15,1.11-.31,1.67-.45,.17-.04,.38-.13,.58-.09,.31,.06,.19,.3,.09,.42-.13,.16-.29,.26-.45,.38-.28,.21-.59,.37-.88,.57Z"/><path class="cls-2" d="M30.36,40.98c-.16-1.59-.3-3.19-.4-4.78-.14-2.21-.16-4.43-.3-6.63-.06-.98-.14-1.97-.23-2.95l-.13-1.48-.17-2.31,1.34-.78,3.76-2.16,3.62-2.06c3.36-1.93,6.76-3.96,10.13-5.94,1.43-.85,2.84-1.68,4.24-2.51,1.37,.77,2.73,1.53,4.09,2.3,1.12,.63,2.23,1.28,3.35,1.94,1.73,1.04,3.49,2.17,5.24,3.16,1.32,.74,2.69,1.39,4.06,2,.99,.44,1.94,.99,2.87,1.58l1.39,.9,.77,.49c.44,.27,.89,.54,1.33,.81l.19,.11-.04,2.17-.04,1.25-.08,2.5c-.05,1.67-.07,3.34-.06,5-.02,1.51,.1,3.1,0,4.64-.07,.97,.05,2.34-.11,3.29-.14,.79-.07,1.77-.36,2.49-.18,.45-.5,.76-.81,1.06-.04,.04-.08,.08-.13,.08-.1,.01-.18-.13-.22-.25-.19-.51-.24-1.06-.37-1.59-.14-.57-.37-1.13-.41-1.74-.02-.33,.16-.71,.21-1.05,.06-.49-.28-1.41-.28-1.9,0-1.13,.15-2.25,.2-3.37,.03-.56,0-1.13-.04-1.69l-.42-5.87-.15-2.06-.07-1.03s-.05-.06-.07-.07h-.03s-.03,0-.05,.01c-.02,0,.03,.03-.06-.02l-.24-.12-.93-.5c-.62-.34-1.23-.69-1.84-1.05-1.22-.72-2.41-1.48-3.6-2.25-2.37-1.54-4.71-3.14-7.11-4.62-.85-.53-1.81-.9-2.63-1.45-.55-.37-1.08-.77-1.61-1.17l-.8-.59-.41-.28-.34-.23c-.12-.08-.25-.16-.38-.23-1.16,.75-2.34,1.53-3.5,2.28-.97,.61-2,1.13-2.95,1.76-1.2,.8-2.29,1.55-3.59,2.2-1.99,.99-3.76,2.19-5.68,3.29-1.47,.84-3.03,1.61-4.48,2.41l-.38,.2,.13,2.47c.05,1.05,.1,2.09,.12,3.14,.03,1.44-.16,2.87-.22,4.3-.06,1.84-.12,3.68-.17,5.52-.05,1.47-.1,2.94-.15,4.41-.02,.45,0,1.03-.12,1.46-.16,.64-.35,.08-.43-.3-.1-.48-.15-1-.2-1.49-.1-.9-.14-1.81-.23-2.72Z"/><path class="cls-2" d="M53.37,37.5c.06,.3,.1,.59,.1,.89,0,.41-.11,.82-.11,1.23,0,.42,.11,.84,.13,1.26,.02,.51-.03,1.03-.04,1.54-.01,.71,.05,1.45,.08,2.17,.03,.73,.16,1.45,.1,2.18-.03,.37-.13,.76-.11,1.13,.01,.28,.14,.56,.3,.83,.23,.4-.02,.81-.09,1.21-.11,.62-.26,1.25-.23,1.87-.02,.28,.1,.57,0,.86-.07,.18,.05,.43-.11,.61-.14,.15-.07,.33-.36,.46-.18,.08-.5,.14-.81,.19-.04,0-.08,.01-.13,.02-.1,0-.18-.02-.22-.05-.19-.09-.24-.2-.37-.29-.14-.11-.37-.21-.41-.32-.02-.06,.16-.13,.21-.19,.06-.09-.28-.26-.28-.35,0-.21,.15-.42,.2-.63,.06-.21-.08-.42-.17-.63-.21-.52-.41-1.05-.6-1.57-.36-1.04,.32-2.09,.49-3.13,.03-.18-.13-.37-.06-.55,.09-.24,.34-.48,.39-.73,.06-.34-.14-.68-.21-1.02-.05-.21,.02-.42-.05-.63-.09-.27-.2-.51-.11-.78,.14-.41-.01-.8,0-1.21,0-.31,.12-.63,.15-.94,.05-.45,.01-.91,.12-1.36,.06-.26,.34-.53,.49-.79,.19-.34,.34-.68,.51-1.02,.14-.27,.27-.54,.42-.81,.05-.08,.07-.19,.21-.27,.2-.12,.35-.01,.41,.06,.07,.09,.09,.19,.11,.28,.04,.17,.03,.34,.07,.5Z"/><path class="cls-2" d="M66.77,29.72c-.5,.35-1.02,.68-1.55,.98-.74,.41-1.53,.73-2.27,1.14-.75,.42-1.46,.94-2.21,1.38-.92,.53-1.87,1.01-2.8,1.52-1.3,.71-2.59,1.5-3.88,2.25-.6,.35-1.2,.7-1.8,1.05-.72-.38-1.43-.76-2.14-1.14-.48-.25-.95-.52-1.41-.8-.66-.41-1.3-.89-1.98-1.25-.51-.27-1.07-.44-1.65-.58-.83-.2-1.45-.84-2.14-1.31-1.06-.73-2.12-1.49-3.25-2.1-.49-.3-1.08-.5-1.54-.88-.29-.24-.8-.39-1.04-.72-.19-.27-.55-.39-.65-.78-.06-.24,0-.58,.05-.9,0-.04,.02-.09,.04-.13,.05-.09,.13-.13,.19-.15,.26-.07,.47-.01,.71-.03,.26-.01,.56-.11,.78-.03,.12,.05,.16,.28,.25,.38,.13,.14,.6,.02,.77,.11,.37,.21,.67,.54,1.01,.8,.17,.13,.37,.21,.57,.28,1.27,.44,2.54,.87,3.8,1.3,2.06,.74,3.6,2.4,5.39,3.61,.32,.21,.73,.27,1.03,.51,.2,.16,.37,.36,.55,.55,.09,.09,.18,.19,.27,.28,.04,.06,.08,.11,.14,.16,.09,.07,.19,.12,.28,.15,.27-.2,.27-.33,.77-.67,.36-.25,.78-.41,1.12-.68,.44-.35,.82-.69,1.35-.88,.81-.29,1.44-.82,2.18-1.23,.57-.31,1.19-.53,1.78-.82,.84-.41,1.64-.9,2.51-1.27,.51-.21,1.12-.23,1.66-.37,.7-.18,1.39-.38,2.08-.57,.56-.15,1.11-.31,1.67-.45,.17-.04,.38-.13,.58-.09,.31,.06,.19,.3,.09,.42-.13,.16-.29,.26-.45,.38-.28,.21-.59,.37-.88,.57Z"/></svg>